<svg width="21" height="19" viewBox="0 0 21 19" fill="none" xmlns="http://www.w3.org/2000/svg">
<path d="M16.7967 18.8H1.8C1.5613 18.8 1.33238 18.7052 1.1636 18.5364C0.994819 18.3677 0.899998 18.1387 0.899998 17.9V8.90005C0.899998 8.66135 0.994819 8.43244 1.1636 8.26365C1.33238 8.09487 1.5613 8.00005 1.8 8.00005H5.9337L8.4402 5.55565C8.7876 5.21815 9.09 3.41635 9.09 1.70005C9.09055 1.58138 9.11471 1.46401 9.16106 1.35477C9.20741 1.24553 9.27504 1.1466 9.36 1.06375C9.52752 0.896979 9.75363 0.802338 9.99 0.800049C11.7567 0.800049 13.6584 1.64515 13.6584 3.50005V7.10005H17.9568C18.3606 7.09971 18.7596 7.18822 19.1254 7.35931C19.4913 7.5304 19.815 7.77988 20.0736 8.09005C20.3261 8.39188 20.5093 8.74552 20.61 9.12595C20.7097 9.50539 20.7239 9.90227 20.6514 10.2878L19.4814 16.5878C19.3604 17.211 19.0263 17.7725 18.5364 18.1762C18.0465 18.5798 17.4314 18.8004 16.7967 18.8ZM10.8666 2.72335C10.7766 4.16875 10.5066 6.05335 9.6966 6.84985L7.2 9.27895V17H16.8066C17.0158 16.9998 17.2189 16.9295 17.3835 16.8002C17.5556 16.6655 17.6745 16.4742 17.7192 16.2602L18.8892 9.96025C18.9128 9.83458 18.9081 9.70522 18.8754 9.58159C18.8427 9.45797 18.7829 9.3432 18.7002 9.24565C18.6105 9.13883 18.4985 9.05289 18.3721 8.99382C18.2458 8.93474 18.108 8.90397 17.9685 8.90365H12.7647C12.526 8.90365 12.2971 8.80883 12.1283 8.64005C11.9595 8.47126 11.8647 8.24234 11.8647 8.00365V3.50365C11.8647 3.25705 11.6919 2.92045 10.8666 2.72335ZM2.7 9.80005V17H5.4V9.80005H2.7Z" fill="#6418C3"/>
</svg>
