<svg width="18" height="17" viewBox="0 0 18 17" fill="none" xmlns="http://www.w3.org/2000/svg">
<g clip-path="url(#clip0_400_1988)">
<path d="M11.1599 16.611C10.7477 16.6115 10.3434 16.51 9.99164 16.3175C9.63983 16.1251 9.3542 15.8492 9.1663 15.5203L6.84109 11.051L4.2073 13.113C4.09976 13.1972 3.96743 13.2519 3.82614 13.2705C3.68485 13.2892 3.54056 13.2709 3.41053 13.218C3.2805 13.165 3.17023 13.0796 3.09289 12.972C3.01556 12.8643 2.97443 12.739 2.97443 12.611V2.59763C2.97441 2.21237 3.0985 1.83531 3.33178 1.51177C3.56506 1.18822 3.89761 0.931974 4.28944 0.773822C4.68128 0.615671 5.11572 0.562348 5.54055 0.620264C5.96538 0.67818 6.36251 0.844871 6.6842 1.1003L14.6406 7.92563C14.7438 8.01404 14.8165 8.12723 14.8499 8.25168C14.8833 8.37612 14.8761 8.50656 14.829 8.62741C14.782 8.74826 14.6971 8.85441 14.5846 8.93318C14.4721 9.01196 14.3366 9.06002 14.1945 9.07163L10.8721 9.34296L13.1512 13.7223C13.3196 14.0267 13.3987 14.3646 13.3811 14.7041C13.3634 15.0435 13.2496 15.3734 13.0503 15.6625C12.8511 15.9515 12.5729 16.1903 12.2421 16.3563C11.9114 16.5222 11.5389 16.6099 11.1599 16.611ZM7.09615 9.29896C7.14785 9.299 7.19941 9.30369 7.25007 9.31296C7.36296 9.33431 7.46875 9.37891 7.55909 9.44325C7.64944 9.50758 7.72184 9.58988 7.77058 9.68363L10.5033 14.9343C10.5492 15.0116 10.6116 15.0801 10.687 15.1358C10.7624 15.1916 10.8494 15.2334 10.9428 15.259C11.0363 15.2846 11.1344 15.2935 11.2317 15.285C11.329 15.2766 11.4234 15.2511 11.5097 15.21C11.596 15.1688 11.6724 15.1128 11.7345 15.0452C11.7967 14.9776 11.8434 14.8997 11.8719 14.8159C11.9005 14.7321 11.9103 14.6441 11.9009 14.5569C11.8915 14.4697 11.8631 14.385 11.8172 14.3076L9.0793 9.04696C9.0288 8.95003 9.00507 8.84362 9.01011 8.73673C9.01514 8.62984 9.0488 8.5256 9.10823 8.43283C9.16766 8.34006 9.25113 8.26147 9.35157 8.20371C9.45201 8.14595 9.56649 8.1107 9.68532 8.10096L12.4366 7.8763L5.67663 2.08163C5.5707 2.00092 5.44105 1.94931 5.30322 1.93299C5.1654 1.91668 5.02525 1.93634 4.89958 1.98963C4.76822 2.04143 4.65671 2.12664 4.57885 2.23472C4.501 2.3428 4.46023 2.46898 4.46161 2.59763V11.1443L6.60686 9.4643C6.74225 9.3579 6.9161 9.29915 7.09615 9.29896Z" fill="white"/>
</g>
<defs>
<clipPath id="clip0_400_1988">
<rect width="17.8462" height="16" fill="white" transform="translate(0 0.609726)"/>
</clipPath>
</defs>
</svg>
