<svg width="32" height="32" viewBox="0 0 32 32" fill="none" xmlns="http://www.w3.org/2000/svg">
<g clip-path="url(#clip0_375_9275)" filter="url(#filter0_d_375_9275)">
<path d="M27.9969 7.32624C27.9962 5.95283 27.4758 4.63561 26.5496 3.66262C25.6234 2.68963 24.3667 2.14005 23.0543 2.13406C20.712 2.13406 18.3686 2.13406 16.0244 2.13406C13.6844 2.13406 11.3416 2.10989 8.99874 2.1401C6.92151 2.16729 5.41736 3.19757 4.4834 5.13426C4.1591 5.82467 3.99584 6.58572 4.00704 7.35495C3.99982 10.1316 3.99116 12.9097 4.00848 15.6863C4.02725 18.6548 6.20841 20.9178 9.05215 20.9359C10.9258 20.948 12.8 20.948 14.6747 20.9359C14.9634 20.9359 15.0572 21.0205 15.0413 21.3196C15.0211 21.732 15.0413 22.1475 15.0413 22.5629C15.0413 23.0841 15.0413 23.0856 14.5563 23.0856C13.4015 23.0856 12.2467 23.0856 11.0918 23.0856C10.6718 23.0856 10.3354 23.2215 10.1319 23.6189C10.0508 23.7743 10.0101 23.9494 10.0138 24.1265C10.0176 24.3036 10.0657 24.4766 10.1534 24.6282C10.2411 24.7797 10.3652 24.9045 10.5135 24.9901C10.6617 25.0757 10.8288 25.1191 10.998 25.1159C12.3925 25.1341 13.7855 25.125 15.1842 25.1265H20.8428C21.108 25.1508 21.3734 25.0829 21.5978 24.9331C21.7599 24.8122 21.8824 24.6418 21.9486 24.4452C22.0147 24.2486 22.0213 24.0355 21.9673 23.8349C21.9219 23.6172 21.8044 23.4234 21.6356 23.2877C21.4668 23.1519 21.2576 23.083 21.0449 23.0931C19.8309 23.0826 18.6169 23.078 17.4044 23.0931C17.0695 23.0931 16.9612 22.9829 16.98 22.6399C17.0045 22.1777 16.9944 21.7109 16.98 21.2456C16.98 21.022 17.0392 20.9283 17.2687 20.9435C17.5675 20.9601 17.8692 20.9435 18.1694 20.9435C19.9825 20.9147 21.7984 21.0326 23.6086 20.8891C25.9933 20.6987 28.0099 18.3602 28.0085 15.8495C27.9998 13.0074 27.996 10.1663 27.9969 7.32624ZM26.2647 15.292C26.2647 16.2816 25.8891 17.2307 25.2204 17.9305C24.5517 18.6303 23.6448 19.0234 22.6992 19.0234H9.29899C8.83064 19.0236 8.36684 18.9272 7.93409 18.7398C7.50134 18.5524 7.10811 18.2775 6.77687 17.931C6.44563 17.5845 6.18287 17.1731 6.00359 16.7203C5.82432 16.2675 5.73205 15.7822 5.73205 15.292V7.63291C5.73205 6.64289 6.10785 5.69342 6.77678 4.99337C7.44571 4.29332 8.35298 3.90004 9.29899 3.90004H22.7007C23.169 3.90004 23.6328 3.9966 24.0654 4.18421C24.4981 4.37183 24.8912 4.64681 25.2223 4.99346C25.5535 5.34011 25.8161 5.75163 25.9952 6.20452C26.1743 6.6574 26.2663 7.14277 26.2661 7.63291L26.2647 15.292Z" fill="#84DA91"/>
<path d="M12.0041 11.6053C12.0041 10.8377 11.9949 10.0688 12.0041 9.30127C12.0261 7.95739 12.9004 7.03112 14.0358 7.13259C14.2566 7.15236 14.4719 7.21995 14.67 7.33163C16.0814 8.12131 17.4871 8.90709 18.8952 9.70847C19.9959 10.3368 20.3274 11.7406 19.6471 12.8308C19.4885 13.0908 19.275 13.3023 19.0257 13.4461C17.5692 14.2709 16.1184 15.1113 14.6515 15.9179C14.3797 16.0666 14.0794 16.1372 13.7775 16.1233C13.4755 16.1094 13.1814 16.0115 12.9212 15.8383C12.6611 15.6651 12.4431 15.4221 12.2866 15.1309C12.1302 14.8397 12.0403 14.5093 12.0249 14.1694C11.9799 13.3173 12.0168 12.46 12.0168 11.6053H12.0041ZM13.5888 11.5766C13.5888 12.3442 13.5888 13.1118 13.5888 13.878C13.5888 14.3099 13.7575 14.4283 14.0936 14.2397L18.1363 11.9669C18.2726 11.8902 18.4274 11.829 18.4181 11.6053C18.41 11.4075 18.2761 11.3451 18.1467 11.267L14.1063 8.99035C13.7702 8.80171 13.5912 8.9214 13.5888 9.339C13.5865 10.0857 13.5888 10.8312 13.5888 11.5766Z" fill="#84DA91"/>
</g>
<defs>
<filter id="filter0_d_375_9275" x="0" y="0.375" width="32" height="31" filterUnits="userSpaceOnUse" color-interpolation-filters="sRGB">
<feFlood flood-opacity="0" result="BackgroundImageFix"/>
<feColorMatrix in="SourceAlpha" type="matrix" values="0 0 0 0 0 0 0 0 0 0 0 0 0 0 0 0 0 0 127 0" result="hardAlpha"/>
<feOffset dy="2.25"/>
<feGaussianBlur stdDeviation="2"/>
<feColorMatrix type="matrix" values="0 0 0 0 0 0 0 0 0 0 0 0 0 0 0 0 0 0 0.141 0"/>
<feBlend mode="normal" in2="BackgroundImageFix" result="effect1_dropShadow_375_9275"/>
<feBlend mode="normal" in="SourceGraphic" in2="effect1_dropShadow_375_9275" result="shape"/>
</filter>
<clipPath id="clip0_375_9275">
<rect width="24" height="23" fill="white" transform="translate(4 2.125)"/>
</clipPath>
</defs>
</svg>
