<svg width="25" height="25" viewBox="0 0 25 25" fill="none" xmlns="http://www.w3.org/2000/svg">
<g filter="url(#filter0_d_375_9282)">
<path d="M12.1871 3.21961C12.3118 2.83573 12.8549 2.83573 12.9796 3.2196L14.6414 8.33401C14.6972 8.50569 14.8571 8.62192 15.0377 8.62192L20.4153 8.62192C20.8189 8.62192 20.9867 9.13843 20.6602 9.37568L16.3096 12.5366C16.1636 12.6427 16.1024 12.8307 16.1582 13.0024L17.82 18.1168C17.9447 18.5007 17.5054 18.8199 17.1788 18.5827L12.8282 15.4218C12.6822 15.3157 12.4845 15.3157 12.3384 15.4218L7.98785 18.5827C7.6613 18.8199 7.22193 18.5007 7.34666 18.1168L9.00844 13.0024C9.06422 12.8307 9.00311 12.6427 8.85707 12.5366L4.5065 9.37568C4.17995 9.13843 4.34777 8.62192 4.75141 8.62192L10.129 8.62192C10.3095 8.62192 10.4695 8.50569 10.5253 8.33401L12.1871 3.21961Z" fill="#FF0000"/>
</g>
<defs>
<filter id="filter0_d_375_9282" x="-3" y="-1.625" width="32" height="31" filterUnits="userSpaceOnUse" color-interpolation-filters="sRGB">
<feFlood flood-opacity="0" result="BackgroundImageFix"/>
<feColorMatrix in="SourceAlpha" type="matrix" values="0 0 0 0 0 0 0 0 0 0 0 0 0 0 0 0 0 0 127 0" result="hardAlpha"/>
<feOffset dy="2.25"/>
<feGaussianBlur stdDeviation="2"/>
<feColorMatrix type="matrix" values="0 0 0 0 0 0 0 0 0 0 0 0 0 0 0 0 0 0 0.141 0"/>
<feBlend mode="normal" in2="BackgroundImageFix" result="effect1_dropShadow_375_9282"/>
<feBlend mode="normal" in="SourceGraphic" in2="effect1_dropShadow_375_9282" result="shape"/>
</filter>
</defs>
</svg>
