<svg width="15" height="15" viewBox="0 0 15 15" fill="none" xmlns="http://www.w3.org/2000/svg">
<path d="M10.4705 8.69093C10.1065 8.75316 9.89867 9.00204 9.48053 9.49982C9.41333 9.58009 9.25156 9.77236 9.12649 9.90924C8.86266 9.82395 8.60524 9.71999 8.35618 9.59813C7.07037 8.97185 6.03169 7.93251 5.40622 6.64631C5.28428 6.39729 5.18031 6.13986 5.09511 5.876C5.232 5.75156 5.42427 5.58853 5.5064 5.51947C6.00418 5.10444 6.24996 4.89724 6.31529 4.53076C6.44471 3.77476 4.44302 0.977867 4.42 0.952978C4.32948 0.823518 4.21137 0.715744 4.07419 0.637416C3.93701 0.559088 3.78417 0.512156 3.62667 0.5C2.81529 0.5 0.5 3.50409 0.5 4.00996C0.5 4.0392 0.542311 7.02773 4.22773 10.7766C7.97289 14.4577 10.9608 14.5 10.99 14.5C11.4965 14.5 14.5 12.1841 14.5 11.3733C14.4883 11.216 14.4419 11.0632 14.364 10.926C14.2861 10.7888 14.1787 10.6706 14.0495 10.58C14.0116 10.5495 11.2333 8.5472 10.4705 8.69093Z" fill="white"/>
</svg>
