<svg width="17" height="14" viewBox="0 0 17 14" fill="none" xmlns="http://www.w3.org/2000/svg">
<path d="M12.4687 14H4.15631C3.05439 13.9988 1.99799 13.5886 1.21881 12.8596C0.43964 12.1305 0.0013199 11.1421 0 10.111L0 4.42143L7.91437 8.46043C8.03647 8.52284 8.17337 8.55555 8.3125 8.55555C8.45163 8.55555 8.58853 8.52284 8.71063 8.46043L16.625 4.42143V10.111C16.6237 11.1421 16.1854 12.1305 15.4062 12.8596C14.627 13.5886 13.5706 13.9988 12.4687 14ZM8.31238 6.89173L0.201993 2.75333C0.45979 1.95911 0.98292 1.26313 1.69458 0.767578C2.40625 0.272025 3.26896 0.00300093 4.15606 0L12.4687 0C13.3558 0.00292727 14.2186 0.271923 14.9302 0.767487C15.6419 1.26305 16.165 1.95907 16.4228 2.75333L8.31238 6.89173Z" fill="white"/>
</svg>
