<svg width="11" height="19" viewBox="0 0 11 19" fill="none" xmlns="http://www.w3.org/2000/svg">
<path d="M7.11979 0.5H9.97302C10.2013 0.589472 10.2724 0.760665 10.27 0.998082C10.2619 1.82975 10.2675 2.66176 10.2664 3.49378C10.2664 3.86716 10.147 3.97953 9.76836 3.98446C9.17587 3.99221 8.58268 3.95769 7.9909 4.00806C7.77955 4.02603 7.57313 4.07358 7.39666 4.20215C7.12155 4.40294 7.0592 4.70235 7.05251 5.01233C7.03983 5.61115 7.05251 6.20751 7.04088 6.80493C7.03806 6.95147 7.08949 6.97507 7.22018 6.97436C8.04198 6.96908 8.86378 6.97084 9.68593 6.9719C10.0237 6.9719 10.1551 7.10294 10.1555 7.43969C10.1555 8.35953 10.1555 9.27937 10.1555 10.1992C10.1555 10.5395 10.0294 10.6638 9.68699 10.6642C8.8828 10.6642 8.07861 10.6642 7.27442 10.6642C7.01622 10.6642 7.04617 10.6321 7.04617 10.885C7.04617 13.2569 7.04617 15.6296 7.04617 18.0033C7.04617 18.3693 6.91442 18.5 6.54879 18.5004H3.78186C3.34296 18.5004 3.2401 18.3986 3.2401 17.9642C3.2401 15.5924 3.24116 13.2196 3.24327 10.8459C3.24327 10.7005 3.20804 10.6586 3.05869 10.6603C2.37215 10.6681 1.68491 10.6642 0.998376 10.6635C0.645773 10.6628 0.52002 10.5391 0.52002 10.1886C0.52002 9.27468 0.52002 8.3607 0.52002 7.44673C0.52002 7.0973 0.648591 6.97119 0.999433 6.97084C1.68033 6.97084 2.36159 6.96485 3.04249 6.97472C3.20769 6.97718 3.24151 6.92681 3.24292 6.77041C3.25172 5.92712 3.19853 5.08313 3.27814 4.24125C3.45814 2.37644 4.64347 1.0245 6.46143 0.615538C6.68053 0.566928 6.90104 0.538043 7.11979 0.5Z" fill="white"/>
</svg>
