<svg width="18" height="19" viewBox="0 0 18 19" fill="none" xmlns="http://www.w3.org/2000/svg">
<path d="M17.997 9.17452C17.997 10.748 18.0052 12.3213 17.9948 13.8946C17.9843 15.5142 17.0977 16.9876 15.683 17.7759C14.9944 18.1598 14.2555 18.3428 13.4679 18.3426C10.4891 18.3416 7.51029 18.3416 4.53147 18.3426C3.41957 18.3426 2.43496 17.9875 1.58815 17.2689C0.836503 16.6309 0.349153 15.8257 0.118961 14.8663C0.0395533 14.5276 0.000289903 14.1808 0.00198157 13.8329C0.00138676 10.7264 -0.00317346 7.62147 0.00396428 4.51576C0.00693834 3.16653 0.520856 2.03301 1.5243 1.13009C2.15639 0.561648 2.89951 0.211304 3.73819 0.0649802C4.00236 0.0202391 4.2699 -0.00151989 4.53782 -5.25363e-05C7.51862 -5.25363e-05 10.4993 -5.25363e-05 13.4798 -5.25363e-05C15.135 -5.25363e-05 16.6349 0.879079 17.4361 2.32447C17.8174 3.01089 17.9994 3.74905 17.9984 4.5344C17.9964 6.08091 17.9964 7.62742 17.9984 9.17393L17.997 9.17452ZM16.5978 9.17928C16.5978 7.84532 16.5978 6.51135 16.5978 5.17739C16.5973 4.68903 16.4976 4.20585 16.3048 3.75718C15.9913 3.021 15.4968 2.4363 14.8197 2.00883C14.2208 1.63092 13.5665 1.42928 12.8586 1.4275C10.3076 1.42353 7.75648 1.4228 5.2054 1.42532C5.05199 1.42487 4.8987 1.43388 4.7464 1.45228C3.89919 1.55776 3.16539 1.90473 2.55769 2.50014C1.79137 3.25 1.40336 4.16819 1.40197 5.24143C1.3988 7.86019 1.39834 10.479 1.40058 13.0979C1.39756 13.9033 1.64994 14.689 2.12147 15.3419C2.593 15.9949 3.2594 16.4816 4.02489 16.732C4.42679 16.8641 4.83998 16.9188 5.2621 16.9186C7.69052 16.9178 10.1191 16.9178 12.5478 16.9186C12.6786 16.9186 12.8095 16.9186 12.9403 16.9136C13.4757 16.8978 14.0012 16.7655 14.4803 16.526C15.1172 16.2123 15.6532 15.7262 16.0276 15.123C16.4019 14.5198 16.5995 13.8237 16.5978 13.1138V9.17928Z" fill="white"/>
<path d="M9.00593 4.56458C11.5335 4.57072 13.6084 6.60994 13.6058 9.17635C13.603 11.7501 11.5139 13.7808 8.99621 13.7776C6.45062 13.7742 4.38999 11.7093 4.39356 9.16326C4.39713 6.63412 6.44963 4.56477 9.00593 4.56458ZM12.3835 9.17992C12.3835 9.10636 12.3878 9.03241 12.3835 8.95924C12.3284 8.13444 12.0351 7.40579 11.4692 6.80166C10.6613 5.93899 9.6624 5.57913 8.48963 5.74369C7.81373 5.83846 7.21951 6.13052 6.7272 6.6028C5.83856 7.45536 5.48345 8.50124 5.65654 9.71882C5.76004 10.4463 6.07489 11.0792 6.58941 11.6044C7.34284 12.3745 8.2636 12.7187 9.33764 12.6217C10.0229 12.56 10.6319 12.2949 11.153 11.8473C11.9671 11.148 12.3668 10.2506 12.3835 9.17992Z" fill="white"/>
<path d="M12.3892 4.38173C12.3886 4.10776 12.4693 3.83977 12.6211 3.61171C12.773 3.38366 12.9891 3.20579 13.242 3.10064C13.495 2.99548 13.7735 2.96777 14.0423 3.02102C14.311 3.07427 14.5579 3.20608 14.7517 3.39975C14.9455 3.59342 15.0775 3.84025 15.1309 4.10897C15.1843 4.37769 15.1567 4.65621 15.0517 4.90926C14.9467 5.16231 14.769 5.37851 14.541 5.53047C14.313 5.68243 14.0451 5.76331 13.7711 5.76288C13.4048 5.76278 13.0534 5.61725 12.7943 5.35828C12.5352 5.09931 12.3895 4.74807 12.3892 4.38173Z" fill="white"/>
</svg>
