<svg width="23" height="15" viewBox="0 0 23 15" fill="none" xmlns="http://www.w3.org/2000/svg">
<path fill-rule="evenodd" clip-rule="evenodd" d="M16.5543 0.0594993C14.9679 0.0972505 13.4804 0.463518 12.4065 1.80409L11.972 1.48119C10.7875 0.60037 9.36934 0.0887782 7.89531 0.0105416C6.42128 -0.0676951 4.95695 0.290904 3.68585 1.04139C2.41476 1.79188 1.39347 2.90087 0.749975 4.22935C0.106483 5.55783 -0.130574 7.0467 0.0685182 8.50935C0.524738 11.8049 3.06366 14.3736 6.3833 14.8989C7.95569 15.1471 9.56623 14.8849 10.9787 14.1507C12.3911 13.4165 13.5311 12.249 14.2314 10.8194C14.3583 10.5592 14.5077 10.4676 14.7936 10.429C17.286 10.0925 19.0185 8.78324 19.8795 6.39206C19.938 6.22978 19.982 6.06188 20.0311 5.8745C20.0515 5.79663 20.0728 5.7154 20.0964 5.62981C18.7285 5.8515 17.4314 5.99287 16.0193 5.61857C17.6089 5.26354 18.9968 4.73503 20.1791 3.77117C21.3553 2.83284 22.1731 1.5187 22.4956 0.0490575C21.8771 0.0490575 21.2647 0.045758 20.6565 0.0424814C19.2741 0.0350342 17.9136 0.0277049 16.5543 0.0594993ZM8.93192 9.21745C8.59027 9.44457 8.18899 9.5654 7.77873 9.56467C7.50482 9.56568 7.23345 9.51218 6.98041 9.40731C6.72737 9.30243 6.49772 9.14826 6.30483 8.95379C6.11194 8.75931 5.95967 8.52841 5.85687 8.27452C5.75407 8.02063 5.7028 7.74882 5.70605 7.47493C5.70868 7.06468 5.83279 6.6644 6.06271 6.32462C6.29263 5.98484 6.61805 5.72079 6.9979 5.56579C7.37775 5.41078 7.79501 5.37178 8.19701 5.4537C8.599 5.53562 8.96772 5.73479 9.25663 6.02608C9.54553 6.31736 9.74168 6.6877 9.8203 7.09036C9.89892 7.49301 9.8565 7.90993 9.69839 8.2885C9.54028 8.66707 9.27357 8.99032 8.93192 9.21745Z" fill="white"/>
</svg>
