<svg width="19" height="19" viewBox="0 0 19 19" fill="none" xmlns="http://www.w3.org/2000/svg">
<path d="M10.4347 16.1446C8.9218 16.1446 7.44289 15.696 6.18497 14.8555C4.92705 14.015 3.94663 12.8203 3.36767 11.4226C2.78871 10.0249 2.63723 8.48687 2.93238 7.00305C3.22753 5.51924 3.95605 4.15627 5.02583 3.0865C6.0956 2.01672 7.45857 1.2882 8.94238 0.993052C10.4262 0.697902 11.9642 0.849384 13.3619 1.42834C14.7597 2.0073 15.9543 2.98772 16.7948 4.24564C17.6353 5.50356 18.084 6.98247 18.084 8.49535C18.084 10.5241 17.2781 12.4697 15.8435 13.9042C14.409 15.3387 12.4634 16.1446 10.4347 16.1446ZM10.4347 3.03163C10.4347 3.03143 10.4345 3.03127 10.4343 3.03127C9.35375 3.03134 8.29747 3.3518 7.399 3.95214C6.50044 4.55254 5.80009 5.40591 5.38653 6.40434C4.97297 7.40277 4.86476 8.50142 5.07559 9.56134C5.28643 10.6213 5.80683 11.5949 6.571 12.359C7.33516 13.1232 8.30877 13.6436 9.36869 13.8544C10.4286 14.0653 11.5273 13.9571 12.5257 13.5435C13.5241 13.1299 14.3775 12.4296 14.9779 11.531C15.5783 10.6325 15.8988 9.57605 15.8988 8.49535C15.8986 7.04631 15.3228 5.65669 14.2981 4.63213C13.2735 3.60766 11.884 3.03209 10.435 3.03199C10.4348 3.03199 10.4347 3.03183 10.4347 3.03163V3.03163Z" fill="#6418C3"/>
<path d="M1.69232 18.3303C1.47596 18.3317 1.26408 18.2687 1.08352 18.1495C0.902954 18.0304 0.761828 17.8602 0.678017 17.6608C0.594206 17.4613 0.571481 17.2415 0.612721 17.0291C0.653961 16.8167 0.75731 16.6213 0.909677 16.4677L0.916157 16.4612L5.0252 12.3522C5.23869 12.1464 5.52517 12.0339 5.82162 12.0394C6.11807 12.0448 6.4002 12.1679 6.60596 12.3813C6.81171 12.5948 6.92423 12.8813 6.91876 13.1778C6.91329 13.4742 6.79029 13.7563 6.5768 13.9621L2.46488 18.0135C2.25948 18.2173 1.98163 18.3312 1.69232 18.3303Z" fill="#6418C3"/>
</svg>
