<svg width="18" height="22" viewBox="0 0 18 22" fill="none" xmlns="http://www.w3.org/2000/svg">
<path d="M8.83084 21.0904H8.66284C8.61622 21.031 8.5423 21.0272 8.47972 21.0034C7.14956 20.4987 5.85341 19.9233 4.64211 19.1717C3.61057 18.5318 2.66808 17.7865 1.8919 16.8474C0.762502 15.484 0.289993 13.9009 0.292933 12.1538C0.296293 9.13988 0.295313 6.12599 0.289993 3.1121C0.289993 2.94764 0.343334 2.92128 0.493697 2.92128C0.967465 2.92379 1.44039 2.95099 1.91542 2.93802C2.85918 2.91123 3.79454 2.81624 4.70931 2.58524C6.19992 2.20861 7.60442 1.65998 8.65738 0.47108C8.75314 0.363113 8.8006 0.417934 8.86444 0.492841C9.17743 0.858466 9.54589 1.17306 9.95646 1.42521C11.5819 2.42956 13.3799 2.82838 15.2628 2.92504C15.9109 2.95852 16.5594 2.9309 17.2075 2.92504V12.6543C17.1541 12.7355 17.1705 12.8284 17.1655 12.9167C17.1361 13.4014 17.0545 13.8817 16.9223 14.3491C16.5195 15.7987 15.6665 16.9521 14.5501 17.9305C13.3888 18.949 12.059 19.7023 10.6541 20.33C10.0531 20.5974 9.43902 20.8376 8.83084 21.0904ZM8.02485 14.6726C8.11137 14.4968 8.18907 14.3349 8.27055 14.1746C9.54528 11.6675 11.3043 9.53325 13.3421 7.6162C13.716 7.26342 13.7202 7.27346 13.3762 6.89558C13.3069 6.81941 13.256 6.8056 13.1662 6.85917C12.8083 7.07427 12.4379 7.27012 12.088 7.49693C10.3357 8.63227 8.77666 9.99986 7.31168 11.4779C7.18904 11.6014 7.12309 11.5951 6.99373 11.4955C6.35364 11.0025 5.70095 10.525 5.0617 10.0308C4.93906 9.93625 4.87017 9.9509 4.76433 10.043C4.50141 10.2715 4.23512 10.497 3.9575 10.7071C3.8189 10.8121 3.8021 10.8657 3.94322 10.9904C4.60095 11.5721 5.24776 12.1663 5.89919 12.7555C6.60229 13.3904 7.30622 14.0244 8.02485 14.6726Z" fill="url(#paint0_linear_902_14151)"/>
<defs>
<linearGradient id="paint0_linear_902_14151" x1="17.1229" y1="5.06349" x2="1.7021" y2="20.7978" gradientUnits="userSpaceOnUse">
<stop stop-color="#6418C3"/>
<stop offset="1" stop-color="#B74BDD"/>
</linearGradient>
</defs>
</svg>
