<svg width="38" height="38" viewBox="0 0 38 38" fill="none" xmlns="http://www.w3.org/2000/svg">
<g clip-path="url(#clip0_1296_84498)">
<path d="M9.875 18.4512H20.1875C20.6848 18.4512 21.1617 18.2536 21.5133 17.902C21.865 17.5504 22.0625 17.0735 22.0625 16.5762V10.0137C22.0625 9.51639 21.865 9.03948 21.5133 8.68785C21.1617 8.33622 20.6848 8.13867 20.1875 8.13867H9.875C9.37772 8.13867 8.90081 8.33622 8.54917 8.68785C8.19754 9.03948 8 9.51639 8 10.0137V16.5762C8 17.0735 8.19754 17.5504 8.54917 17.902C8.90081 18.2536 9.37772 18.4512 9.875 18.4512ZM9.875 10.0137H20.1875V16.5762H9.875V10.0137Z" fill="#FF0000"/>
<path d="M28.6251 8.13867H25.8126C25.3154 8.13867 24.8384 8.33622 24.4868 8.68785C24.1352 9.03948 23.9376 9.51639 23.9376 10.0137V16.5762C23.9376 17.0735 24.1352 17.5504 24.4868 17.902C24.8384 18.2536 25.3154 18.4512 25.8126 18.4512H28.6251C29.1224 18.4512 29.5993 18.2536 29.951 17.902C30.3026 17.5504 30.5001 17.0735 30.5001 16.5762V10.0137C30.5001 9.51639 30.3026 9.03948 29.951 8.68785C29.5993 8.33622 29.1224 8.13867 28.6251 8.13867V8.13867ZM28.6251 16.5762H25.8126V10.0137H28.6251V16.5762Z" fill="#FF0000"/>
<path d="M12.6875 20.3242H9.87498C9.3777 20.3242 8.90079 20.5218 8.54916 20.8734C8.19753 21.225 7.99998 21.7019 7.99998 22.1992V28.7617C7.99998 29.259 8.19753 29.7359 8.54916 30.0875C8.90079 30.4392 9.3777 30.6367 9.87498 30.6367H12.6875C13.1848 30.6367 13.6617 30.4392 14.0133 30.0875C14.3649 29.7359 14.5625 29.259 14.5625 28.7617V22.1992C14.5625 21.7019 14.3649 21.225 14.0133 20.8734C13.6617 20.5218 13.1848 20.3242 12.6875 20.3242ZM12.6875 28.7617H9.87498V22.1992H12.6875V28.7617Z" fill="#FF0000"/>
<path d="M28.625 20.3242H18.3125C17.8152 20.3242 17.3383 20.5218 16.9867 20.8734C16.635 21.225 16.4375 21.7019 16.4375 22.1992V28.7617C16.4375 29.259 16.635 29.7359 16.9867 30.0875C17.3383 30.4392 17.8152 30.6367 18.3125 30.6367H28.625C29.1223 30.6367 29.5992 30.4392 29.9508 30.0875C30.3025 29.7359 30.5 29.259 30.5 28.7617V22.1992C30.5 21.7019 30.3025 21.225 29.9508 20.8734C29.5992 20.5218 29.1223 20.3242 28.625 20.3242ZM28.625 28.7617H18.3125V22.1992H28.625V28.7617Z" fill="#FF0000"/>
</g>
<defs>
<clipPath id="clip0_1296_84498">
<rect width="22.5" height="22.5" fill="white" transform="translate(8 8.13867)"/>
</clipPath>
</defs>
</svg>
