<svg width="21" height="21" viewBox="0 0 21 21" fill="none" xmlns="http://www.w3.org/2000/svg">
<g clip-path="url(#clip0_1296_84123)">
<path d="M10.5 11.6644L6.49035 12.9691L0 8.24805L10.5 11.6644Z" fill="url(#paint0_linear_1296_84123)"/>
<path d="M10.5 11.666V15.8892L4.012 20.6102L10.5 11.666Z" fill="url(#paint1_linear_1296_84123)"/>
<path d="M14.5096 12.9707L16.988 20.6102L10.5 11.666L14.5096 12.9707Z" fill="url(#paint2_linear_1296_84123)"/>
<path d="M21 8.24805L10.5 11.6643L12.9783 8.24805H21Z" fill="url(#paint3_linear_1296_84123)"/>
<path d="M10.5 0.609375V11.6652L8.02165 8.24887L10.5 0.609375Z" fill="url(#paint4_linear_1296_84123)"/>
<path d="M10.5 11.6643L0 8.24805H8.02165L10.5 11.6643Z" fill="url(#paint5_linear_1296_84123)"/>
<path d="M10.5 11.666L4.012 20.6102L6.49035 12.9707L10.5 11.666Z" fill="url(#paint6_linear_1296_84123)"/>
<path d="M10.5 11.666L16.988 20.6102L10.5 15.8892V11.666Z" fill="url(#paint7_linear_1296_84123)"/>
<path d="M21 8.24805L14.5096 12.9691L10.5 11.6644L21 8.24805Z" fill="url(#paint8_linear_1296_84123)"/>
<path d="M10.5 0.609375L12.9783 8.24887L10.5 11.6652V0.609375Z" fill="url(#paint9_linear_1296_84123)"/>
</g>
<defs>
<linearGradient id="paint0_linear_1296_84123" x1="-2.02367" y1="7.04951" x2="10.7738" y2="13.44" gradientUnits="userSpaceOnUse">
<stop stop-color="#F9AB21"/>
<stop offset="1" stop-color="#CE7904"/>
</linearGradient>
<linearGradient id="paint1_linear_1296_84123" x1="4.15335" y1="18.2226" x2="10.5907" y2="13.9114" gradientUnits="userSpaceOnUse">
<stop stop-color="#F9AB21"/>
<stop offset="1" stop-color="#CE7904"/>
</linearGradient>
<linearGradient id="paint2_linear_1296_84123" x1="17.3107" y1="21.5422" x2="12.914" y2="13.1294" gradientUnits="userSpaceOnUse">
<stop stop-color="#FDE265"/>
<stop offset="1" stop-color="#FBC12A"/>
</linearGradient>
<linearGradient id="paint3_linear_1296_84123" x1="21.5984" y1="6.74044" x2="10.6312" y2="10.3171" gradientUnits="userSpaceOnUse">
<stop stop-color="#FDE265"/>
<stop offset="1" stop-color="#FBC12A"/>
</linearGradient>
<linearGradient id="paint4_linear_1296_84123" x1="9.77676" y1="-1.62962" x2="9.26403" y2="9.86258" gradientUnits="userSpaceOnUse">
<stop stop-color="#FBC12A"/>
<stop offset="1" stop-color="#F29C14"/>
</linearGradient>
<linearGradient id="paint5_linear_1296_84123" x1="2.94009" y1="7.70304" x2="12.4847" y2="12.5589" gradientUnits="userSpaceOnUse">
<stop stop-color="#FDD733"/>
<stop offset="1" stop-color="#F29C14"/>
</linearGradient>
<linearGradient id="paint6_linear_1296_84123" x1="4.35831" y1="18.3547" x2="10.2881" y2="9.72538" gradientUnits="userSpaceOnUse">
<stop stop-color="#FBC12A"/>
<stop offset="1" stop-color="#F29C14"/>
</linearGradient>
<linearGradient id="paint7_linear_1296_84123" x1="15.3907" y1="20.1667" x2="7.81205" y2="10.2966" gradientUnits="userSpaceOnUse">
<stop stop-color="#F9AB21"/>
<stop offset="1" stop-color="#CE7904"/>
</linearGradient>
<linearGradient id="paint8_linear_1296_84123" x1="22.7575" y1="6.41249" x2="13.9802" y2="11.4526" gradientUnits="userSpaceOnUse">
<stop stop-color="#FBC12A"/>
<stop offset="1" stop-color="#F29C14"/>
</linearGradient>
<linearGradient id="paint9_linear_1296_84123" x1="11.8075" y1="1.38087" x2="11.5878" y2="11.0777" gradientUnits="userSpaceOnUse">
<stop stop-color="#FCED97"/>
<stop offset="1" stop-color="#FDD733"/>
</linearGradient>
<clipPath id="clip0_1296_84123">
<rect width="21" height="20" fill="white" transform="translate(0 0.609375)"/>
</clipPath>
</defs>
</svg>
