<svg width="72" height="70" viewBox="0 0 72 70" fill="none" xmlns="http://www.w3.org/2000/svg">
<g clip-path="url(#clip0_277_5881)" filter="url(#filter0_d_277_5881)">
<path d="M59.4939 17.2941C59.4924 14.5759 58.4625 11.9688 56.6294 10.0431C54.7962 8.11744 52.309 7.02973 49.7117 7.01787C45.0757 7.01787 40.4379 7.01787 35.7982 7.01787C31.1671 7.01787 26.5302 6.97003 21.8933 7.02983C17.7821 7.08365 14.8052 9.12274 12.9567 12.9558C12.3149 14.3222 11.9918 15.8284 12.0139 17.3509C11.9996 22.8463 11.9825 28.3446 12.0168 33.84C12.0539 39.7151 16.3708 44.194 21.999 44.2298C25.7074 44.2538 29.4167 44.2538 33.1269 44.2298C33.6983 44.2298 33.884 44.3973 33.8526 44.9893C33.8126 45.8055 33.8526 46.6277 33.8526 47.4499C33.8526 48.4814 33.8526 48.4844 32.8927 48.4844C30.6071 48.4844 28.3215 48.4844 26.0359 48.4844C25.2046 48.4844 24.5389 48.7535 24.1361 49.5399C23.9755 49.8476 23.8949 50.1941 23.9024 50.5446C23.9098 50.8951 24.0051 51.2375 24.1786 51.5374C24.3522 51.8374 24.5979 52.0844 24.8912 52.2538C25.1845 52.4232 25.5152 52.5091 25.8502 52.5028C28.6101 52.5387 31.367 52.5208 34.1355 52.5238H45.3348C45.8595 52.5719 46.3848 52.4374 46.829 52.141C47.1499 51.9016 47.3923 51.5643 47.5232 51.1753C47.6541 50.7863 47.6671 50.3644 47.5604 49.9674C47.4705 49.5366 47.2379 49.153 46.9038 48.8844C46.5697 48.6157 46.1556 48.4794 45.7348 48.4994C43.332 48.4785 40.9293 48.4695 38.5295 48.4994C37.8667 48.4994 37.6524 48.2811 37.6895 47.6024C37.7381 46.6875 37.7181 45.7636 37.6895 44.8428C37.6895 44.4003 37.8067 44.2149 38.2609 44.2448C38.8523 44.2777 39.4494 44.2448 40.0437 44.2448C43.632 44.188 47.2261 44.4212 50.8087 44.1372C55.5284 43.7604 59.5196 39.1321 59.5168 34.1629C59.4996 28.538 59.492 22.915 59.4939 17.2941ZM56.0656 33.0597C56.0656 35.0183 55.3221 36.8967 53.9987 38.2816C52.6753 39.6666 50.8804 40.4447 49.0088 40.4447H22.4876C21.5606 40.4451 20.6427 40.2543 19.7862 39.8834C18.9297 39.5124 18.1515 38.9685 17.4959 38.2827C16.8403 37.5969 16.3203 36.7827 15.9654 35.8865C15.6106 34.9903 15.428 34.0297 15.428 33.0597V17.901C15.428 15.9416 16.1718 14.0624 17.4957 12.6769C18.8196 11.2914 20.6153 10.513 22.4876 10.513H49.0117C49.9386 10.513 50.8565 10.7042 51.7128 11.0755C52.5692 11.4468 53.3472 11.991 54.0026 12.6771C54.6579 13.3632 55.1776 14.1776 55.5321 15.074C55.8865 15.9703 56.0688 16.931 56.0684 17.901L56.0656 33.0597Z" fill="#84DA91"/>
<path d="M27.8414 25.7629C27.8414 24.2438 27.8232 22.7221 27.8414 21.203C27.8849 18.5432 29.6154 16.7099 31.8626 16.9108C32.2995 16.9499 32.7257 17.0837 33.1176 17.3047C35.9112 18.8676 38.6933 20.4228 41.48 22.0089C43.6586 23.2525 44.3147 26.0307 42.9682 28.1884C42.6544 28.7031 42.2317 29.1216 41.7383 29.4063C38.8556 31.0387 35.9843 32.702 33.0811 34.2984C32.5431 34.5927 31.9488 34.7323 31.3512 34.7049C30.7536 34.6774 30.1714 34.4836 29.6565 34.1409C29.1417 33.7981 28.7102 33.3171 28.4006 32.7407C28.0911 32.1643 27.9131 31.5106 27.8826 30.8379C27.7934 29.1514 27.8666 27.4546 27.8666 25.7629H27.8414ZM30.9779 25.7063C30.9779 27.2254 30.9779 28.7445 30.9779 30.2611C30.9779 31.1159 31.3117 31.3502 31.9769 30.9769L39.9781 26.4787C40.2478 26.3268 40.5541 26.2058 40.5358 25.7629C40.5198 25.3716 40.2547 25.248 39.9986 25.0935L32.002 20.5876C31.3368 20.2142 30.9825 20.4511 30.9779 21.2776C30.9733 22.7556 30.9779 24.2309 30.9779 25.7063Z" fill="#84DA91"/>
</g>
<defs>
<filter id="filter0_d_277_5881" x="0" y="0.25" width="71.5" height="69.5208" filterUnits="userSpaceOnUse" color-interpolation-filters="sRGB">
<feFlood flood-opacity="0" result="BackgroundImageFix"/>
<feColorMatrix in="SourceAlpha" type="matrix" values="0 0 0 0 0 0 0 0 0 0 0 0 0 0 0 0 0 0 127 0" result="hardAlpha"/>
<feOffset dy="5.25"/>
<feGaussianBlur stdDeviation="6"/>
<feColorMatrix type="matrix" values="0 0 0 0 0 0 0 0 0 0 0 0 0 0 0 0 0 0 0.141 0"/>
<feBlend mode="normal" in2="BackgroundImageFix" result="effect1_dropShadow_277_5881"/>
<feBlend mode="normal" in="SourceGraphic" in2="effect1_dropShadow_277_5881" result="shape"/>
</filter>
<clipPath id="clip0_277_5881">
<rect width="47.5" height="45.5208" fill="white" transform="translate(12 7)"/>
</clipPath>
</defs>
</svg>
