<svg width="16" height="16" viewBox="0 0 16 16" fill="none" xmlns="http://www.w3.org/2000/svg">
<g clip-path="url(#clip0_185_2567)">
<path d="M15.1693 6.5118C14.1999 4.93305 11.9949 2.2843 8.12491 2.2843C4.25491 2.2843 2.04991 4.93305 1.08053 6.5118C0.780865 6.99649 0.622131 7.55508 0.622131 8.12493C0.622131 8.69478 0.780865 9.25336 1.08053 9.73805C2.04991 11.3168 4.25491 13.9656 8.12491 13.9656C11.9949 13.9656 14.1999 11.3168 15.1693 9.73805C15.469 9.25336 15.6277 8.69478 15.6277 8.12493C15.6277 7.55508 15.469 6.99649 15.1693 6.5118V6.5118ZM14.1037 9.08368C13.2712 10.4374 11.3868 12.7156 8.12491 12.7156C4.86304 12.7156 2.97866 10.4374 2.14616 9.08368C1.96812 8.79558 1.87382 8.4636 1.87382 8.12493C1.87382 7.78626 1.96812 7.45427 2.14616 7.16618C2.97866 5.81243 4.86304 3.5343 8.12491 3.5343C11.3868 3.5343 13.2712 5.80993 14.1037 7.16618C14.2817 7.45427 14.376 7.78626 14.376 8.12493C14.376 8.4636 14.2817 8.79558 14.1037 9.08368V9.08368Z" fill="white"/>
<path d="M8.12488 4.99988C7.50681 4.99988 6.90263 5.18316 6.38872 5.52654C5.87482 5.86991 5.47428 6.35797 5.23776 6.92899C5.00123 7.50001 4.93935 8.12834 5.05993 8.73454C5.1805 9.34073 5.47813 9.89755 5.91517 10.3346C6.35221 10.7716 6.90903 11.0693 7.51522 11.1898C8.12141 11.3104 8.74975 11.2485 9.32077 11.012C9.89178 10.7755 10.3798 10.3749 10.7232 9.86104C11.0666 9.34713 11.2499 8.74294 11.2499 8.12488C11.2489 7.29638 10.9193 6.5021 10.3335 5.91627C9.74766 5.33043 8.95338 5.00087 8.12488 4.99988ZM8.12488 9.99988C7.75404 9.99988 7.39153 9.88991 7.08318 9.68388C6.77484 9.47786 6.53452 9.18502 6.3926 8.84241C6.25069 8.4998 6.21356 8.1228 6.28591 7.75908C6.35825 7.39537 6.53683 7.06128 6.79905 6.79905C7.06128 6.53683 7.39537 6.35825 7.75909 6.28591C8.1228 6.21356 8.4998 6.25069 8.84241 6.3926C9.18502 6.53452 9.47786 6.77484 9.68388 7.08318C9.88991 7.39153 9.99988 7.75404 9.99988 8.12488C9.99988 8.62216 9.80234 9.09907 9.45071 9.4507C9.09907 9.80233 8.62216 9.99988 8.12488 9.99988Z" fill="white"/>
</g>
<defs>
<clipPath id="clip0_185_2567">
<rect width="15" height="15" fill="white" transform="translate(0.625 0.625)"/>
</clipPath>
</defs>
</svg>
