<svg width="16" height="16" viewBox="0 0 16 16" fill="none" xmlns="http://www.w3.org/2000/svg">
<g clip-path="url(#clip0_185_2574)">
<path d="M13.2499 3.12512H11.3124C11.1674 2.41975 10.7836 1.78596 10.2257 1.33057C9.66786 0.875178 8.97007 0.626031 8.24994 0.625122L6.99994 0.625122C6.27981 0.626031 5.58201 0.875178 5.02416 1.33057C4.4663 1.78596 4.0825 2.41975 3.93744 3.12512H1.99994C1.83418 3.12512 1.67521 3.19097 1.558 3.30818C1.44079 3.42539 1.37494 3.58436 1.37494 3.75012C1.37494 3.91588 1.44079 4.07485 1.558 4.19206C1.67521 4.30927 1.83418 4.37512 1.99994 4.37512H2.62494V12.5001C2.62593 13.3286 2.95549 14.1229 3.54133 14.7087C4.12716 15.2946 4.92144 15.6241 5.74994 15.6251H9.49994C10.3284 15.6241 11.1227 15.2946 11.7086 14.7087C12.2944 14.1229 12.6239 13.3286 12.6249 12.5001V4.37512H13.2499C13.4157 4.37512 13.5747 4.30927 13.6919 4.19206C13.8091 4.07485 13.8749 3.91588 13.8749 3.75012C13.8749 3.58436 13.8091 3.42539 13.6919 3.30818C13.5747 3.19097 13.4157 3.12512 13.2499 3.12512V3.12512ZM6.99994 1.87512H8.24994C8.63761 1.8756 9.01564 1.99598 9.3322 2.21977C9.64875 2.44357 9.88832 2.7598 10.0181 3.12512H5.23181C5.36155 2.7598 5.60113 2.44357 5.91768 2.21977C6.23423 1.99598 6.61227 1.8756 6.99994 1.87512V1.87512ZM11.3749 12.5001C11.3749 12.9974 11.1774 13.4743 10.8258 13.8259C10.4741 14.1776 9.99722 14.3751 9.49994 14.3751H5.74994C5.25266 14.3751 4.77574 14.1776 4.42411 13.8259C4.07248 13.4743 3.87494 12.9974 3.87494 12.5001V4.37512H11.3749V12.5001Z" fill="white"/>
<path d="M6.375 11.8747C6.54076 11.8747 6.69973 11.8089 6.81694 11.6917C6.93415 11.5745 7 11.4155 7 11.2497V7.49975C7 7.33399 6.93415 7.17502 6.81694 7.05781C6.69973 6.9406 6.54076 6.87476 6.375 6.87476C6.20924 6.87476 6.05027 6.9406 5.93306 7.05781C5.81585 7.17502 5.75 7.33399 5.75 7.49975V11.2497C5.75 11.4155 5.81585 11.5745 5.93306 11.6917C6.05027 11.8089 6.20924 11.8747 6.375 11.8747Z" fill="white"/>
<path d="M8.87488 11.8747C9.04064 11.8747 9.19961 11.8089 9.31683 11.6917C9.43404 11.5745 9.49988 11.4155 9.49988 11.2497V7.49975C9.49988 7.33399 9.43404 7.17502 9.31683 7.05781C9.19961 6.9406 9.04064 6.87476 8.87488 6.87476C8.70912 6.87476 8.55015 6.9406 8.43294 7.05781C8.31573 7.17502 8.24988 7.33399 8.24988 7.49975V11.2497C8.24988 11.4155 8.31573 11.5745 8.43294 11.6917C8.55015 11.8089 8.70912 11.8747 8.87488 11.8747Z" fill="white"/>
</g>
<defs>
<clipPath id="clip0_185_2574">
<rect width="15" height="15" fill="white" transform="translate(0.125 0.625122)"/>
</clipPath>
</defs>
</svg>
