<svg width="16" height="16" viewBox="0 0 16 16" fill="none" xmlns="http://www.w3.org/2000/svg">
<g clip-path="url(#clip0_185_2571)">
<path d="M12.1249 6.28988C12.125 6.03848 12.0754 5.78955 11.9788 5.55742C11.8823 5.3253 11.7408 5.11457 11.5624 4.93738C11.1975 4.58916 10.7125 4.39488 10.2081 4.39488C9.70364 4.39488 9.21861 4.58916 8.85368 4.93738L1.43743 12.3555C1.09894 12.7185 0.91458 13.1986 0.923202 13.6949C0.931824 14.1911 1.13275 14.6646 1.48365 15.0155C1.83454 15.3665 2.30799 15.5676 2.8042 15.5763C3.30042 15.585 3.78065 15.4008 4.14368 15.0624L11.5624 7.64425C11.741 7.46688 11.8827 7.25586 11.9793 7.02338C12.0758 6.79091 12.1253 6.5416 12.1249 6.28988V6.28988ZM3.25993 14.1799C3.13358 14.3003 2.96573 14.3675 2.79118 14.3675C2.61663 14.3675 2.44877 14.3003 2.32243 14.1799C2.19831 14.0554 2.12861 13.8869 2.12861 13.7111C2.12861 13.5354 2.19831 13.3668 2.32243 13.2424L7.17805 8.38613L8.11868 9.32675L3.25993 14.1799ZM10.6799 6.75988L8.99993 8.4405L8.06243 7.49988L9.74305 5.81988C9.80296 5.75144 9.87629 5.69603 9.95849 5.65708C10.0407 5.61814 10.13 5.59648 10.2209 5.59347C10.3118 5.59045 10.4024 5.60613 10.487 5.63954C10.5716 5.67295 10.6484 5.72337 10.7127 5.78769C10.7771 5.85201 10.8275 5.92885 10.8609 6.01345C10.8943 6.09805 10.91 6.18861 10.907 6.27952C10.9039 6.37042 10.8823 6.45974 10.8433 6.54194C10.8044 6.62414 10.749 6.69747 10.6806 6.75738L10.6799 6.75988ZM3.9143 2.40925L4.88305 2.133L5.1593 1.16425C5.20381 1.00881 5.29772 0.872076 5.42683 0.77474C5.55594 0.677405 5.71324 0.624756 5.87493 0.624756C6.03662 0.624756 6.19392 0.677405 6.32303 0.77474C6.45214 0.872076 6.54605 1.00881 6.59055 1.16425L6.8668 2.133L7.83555 2.40925C7.991 2.45376 8.12773 2.54766 8.22507 2.67678C8.3224 2.80589 8.37505 2.96319 8.37505 3.12488C8.37505 3.28657 8.3224 3.44387 8.22507 3.57298C8.12773 3.70209 7.991 3.796 7.83555 3.8405L6.8668 4.11675L6.59055 5.0855C6.54605 5.24095 6.45214 5.37768 6.32303 5.47502C6.19392 5.57235 6.03662 5.625 5.87493 5.625C5.71324 5.625 5.55594 5.57235 5.42683 5.47502C5.29772 5.37768 5.20381 5.24095 5.1593 5.0855L4.88305 4.11675L3.9143 3.8405C3.75886 3.796 3.62213 3.70209 3.52479 3.57298C3.42746 3.44387 3.37481 3.28657 3.37481 3.12488C3.37481 2.96319 3.42746 2.80589 3.52479 2.67678C3.62213 2.54766 3.75886 2.45376 3.9143 2.40925V2.40925ZM15.3356 11.3405L14.3668 11.6168L14.0906 12.5855C14.0461 12.7409 13.9521 12.8777 13.823 12.975C13.6939 13.0724 13.5366 13.125 13.3749 13.125C13.2132 13.125 13.0559 13.0724 12.9268 12.975C12.7977 12.8777 12.7038 12.7409 12.6593 12.5855L12.3831 11.6168L11.4143 11.3405C11.2589 11.296 11.1221 11.2021 11.0248 11.073C10.9275 10.9439 10.8748 10.7866 10.8748 10.6249C10.8748 10.4632 10.9275 10.3059 11.0248 10.1768C11.1221 10.0477 11.2589 9.95376 11.4143 9.90925L12.3831 9.633L12.6593 8.66425C12.7038 8.50881 12.7977 8.37208 12.9268 8.27474C13.0559 8.1774 13.2132 8.12476 13.3749 8.12476C13.5366 8.12476 13.6939 8.1774 13.823 8.27474C13.9521 8.37208 14.0461 8.50881 14.0906 8.66425L14.3668 9.633L15.3356 9.90925C15.491 9.95376 15.6277 10.0477 15.7251 10.1768C15.8224 10.3059 15.875 10.4632 15.875 10.6249C15.875 10.7866 15.8224 10.9439 15.7251 11.073C15.6277 11.2021 15.491 11.296 15.3356 11.3405V11.3405ZM11.9718 2.18738L12.8193 1.9455L13.0624 1.09675C13.102 0.961639 13.1843 0.842985 13.297 0.758573C13.4096 0.674162 13.5466 0.628537 13.6874 0.628537C13.8282 0.628537 13.9652 0.674162 14.0779 0.758573C14.1906 0.842985 14.2729 0.961639 14.3124 1.09675L14.5543 1.94425L15.4018 2.18613C15.5369 2.2257 15.6556 2.30799 15.74 2.42066C15.8244 2.53334 15.87 2.67034 15.87 2.81113C15.87 2.95192 15.8244 3.08891 15.74 3.20159C15.6556 3.31427 15.5369 3.39656 15.4018 3.43613L14.5543 3.678L14.3124 4.52738C14.2729 4.66249 14.1906 4.78115 14.0779 4.86556C13.9652 4.94997 13.8282 4.99559 13.6874 4.99559C13.5466 4.99559 13.4096 4.94997 13.297 4.86556C13.1843 4.78115 13.102 4.66249 13.0624 4.52738L12.8206 3.6805L11.9718 3.43738C11.8367 3.39781 11.718 3.31552 11.6336 3.20284C11.5492 3.09016 11.5036 2.95317 11.5036 2.81238C11.5036 2.67159 11.5492 2.53459 11.6336 2.42191C11.718 2.30924 11.8367 2.22695 11.9718 2.18738V2.18738Z" fill="white"/>
</g>
<defs>
<clipPath id="clip0_185_2571">
<rect width="15" height="15" fill="white" transform="translate(0.875 0.625)"/>
</clipPath>
</defs>
</svg>
