<svg width="21" height="22" viewBox="0 0 21 22" fill="none" xmlns="http://www.w3.org/2000/svg">
<g clip-path="url(#clip0_1232_72191)">
<path d="M11.3751 18.0215C12.535 18.0201 13.647 17.5587 14.4672 16.7386C15.2873 15.9184 15.7487 14.8064 15.7501 13.6465V5.98412C15.7515 5.52419 15.6615 5.06856 15.4855 4.64364C15.3095 4.21872 15.0508 3.83297 14.7246 3.50875L12.7629 1.547C12.4386 1.22078 12.0529 0.962152 11.628 0.786117C11.2031 0.610082 10.7474 0.520139 10.2875 0.5215H6.12512C4.96523 0.522889 3.85324 0.984271 3.03306 1.80444C2.21289 2.62461 1.75151 3.7366 1.75012 4.8965V13.6465C1.75151 14.8064 2.21289 15.9184 3.03306 16.7386C3.85324 17.5587 4.96523 18.0201 6.12512 18.0215H11.3751ZM3.50012 13.6465V4.8965C3.50012 4.20031 3.77668 3.53263 4.26897 3.04034C4.76125 2.54806 5.42893 2.2715 6.12512 2.2715C6.12512 2.2715 10.4292 2.28375 10.5001 2.2925V4.0215C10.5001 4.48563 10.6845 4.93075 11.0127 5.25894C11.3409 5.58713 11.786 5.7715 12.2501 5.7715H13.9791C13.9879 5.84237 14.0001 13.6465 14.0001 13.6465C14.0001 14.3427 13.7236 15.0104 13.2313 15.5027C12.739 15.9949 12.0713 16.2715 11.3751 16.2715H6.12512C5.42893 16.2715 4.76125 15.9949 4.26897 15.5027C3.77668 15.0104 3.50012 14.3427 3.50012 13.6465ZM19.2501 7.5215V17.1465C19.2487 18.3064 18.7873 19.4184 17.9672 20.2386C17.147 21.0587 16.035 21.5201 14.8751 21.5215H7.00012C6.76806 21.5215 6.5455 21.4293 6.3814 21.2652C6.21731 21.1011 6.12512 20.8786 6.12512 20.6465C6.12512 20.4144 6.21731 20.1919 6.3814 20.0278C6.5455 19.8637 6.76806 19.7715 7.00012 19.7715H14.8751C15.5713 19.7715 16.239 19.4949 16.7313 19.0027C17.2236 18.5104 17.5001 17.8427 17.5001 17.1465V7.5215C17.5001 7.28944 17.5923 7.06688 17.7564 6.90278C17.9205 6.73869 18.1431 6.6465 18.3751 6.6465C18.6072 6.6465 18.8297 6.73869 18.9938 6.90278C19.1579 7.06688 19.2501 7.28944 19.2501 7.5215Z" fill="black"/>
</g>
<defs>
<clipPath id="clip0_1232_72191">
<rect width="21" height="21" fill="white" transform="translate(0 0.521484)"/>
</clipPath>
</defs>
</svg>
