<svg width="19" height="15" viewBox="0 0 19 15" fill="none" xmlns="http://www.w3.org/2000/svg">
<path d="M9.54923 14.6459C9.2977 14.6459 9.05356 14.5939 8.81682 14.49C8.58009 14.3856 8.37294 14.2362 8.19539 14.0417L1.40398 6.41671C1.18204 6.16671 1.04887 5.87504 1.00448 5.54171C0.960095 5.20837 1.01928 4.89587 1.18204 4.60421L2.8466 1.50004C3.00935 1.22226 3.22775 1.00004 3.50177 0.833374C3.7752 0.666707 4.08207 0.583374 4.42238 0.583374H14.6761C15.0164 0.583374 15.3233 0.666707 15.5967 0.833374C15.8707 1.00004 16.0891 1.22226 16.2519 1.50004L17.9164 4.60421C18.0792 4.89587 18.1384 5.20837 18.094 5.54171C18.0496 5.87504 17.9164 6.16671 17.6945 6.41671L10.9031 14.0417C10.7255 14.2362 10.5184 14.3856 10.2816 14.49C10.0449 14.5939 9.80076 14.6459 9.54923 14.6459ZM7.44079 4.75004H11.6577L10.326 2.25004H8.77244L7.44079 4.75004ZM8.66146 11.9792V6.41671H3.73436L8.66146 11.9792ZM10.437 11.9792L15.3641 6.41671H10.437V11.9792ZM13.633 4.75004H15.9855L14.6539 2.25004H12.3013L13.633 4.75004ZM3.11293 4.75004H5.46551L6.79716 2.25004H4.44458L3.11293 4.75004Z" fill="white"/>
</svg>
