<svg width="21" height="20" viewBox="0 0 21 20" fill="none" xmlns="http://www.w3.org/2000/svg">
<path d="M10.25 -0.00012207C8.27216 -0.00012207 6.33876 0.586368 4.69427 1.68518C3.04978 2.784 1.76805 4.34578 1.01118 6.17304C0.254302 8.00031 0.056269 10.011 0.442121 11.9508C0.827973 13.8906 1.78038 15.6724 3.17891 17.0709C4.57743 18.4695 6.35926 19.4219 8.29907 19.8077C10.2389 20.1936 12.2495 19.9955 14.0768 19.2387C15.9041 18.4818 17.4659 17.2001 18.5647 15.5556C19.6635 13.9111 20.25 11.9777 20.25 9.99988C20.2471 7.34859 19.1926 4.80672 17.3179 2.93198C15.4431 1.05723 12.9013 0.0027455 10.25 -0.00012207V-0.00012207ZM18.5833 9.99988C18.5843 11.633 18.1024 13.2299 17.1983 14.5899L16.205 13.5957C16.1271 13.5176 16.0833 13.4118 16.0833 13.3015V12.4999C16.0833 11.8368 15.8199 11.201 15.3511 10.7321C14.8822 10.2633 14.2463 9.99988 13.5833 9.99988H11.0833C10.8623 9.99988 10.6503 9.91208 10.4941 9.7558C10.3378 9.59952 10.25 9.38756 10.25 9.16655V8.74988C10.25 8.63937 10.2939 8.53339 10.372 8.45525C10.4502 8.37711 10.5561 8.33321 10.6666 8.33321C11.2192 8.33321 11.7491 8.11372 12.1398 7.72302C12.5305 7.33232 12.75 6.80241 12.75 6.24988V5.41654C12.75 5.30604 12.7939 5.20006 12.872 5.12192C12.9502 5.04378 13.0561 4.99988 13.1666 4.99988H14.3158C14.8678 4.99831 15.3969 4.77912 15.7883 4.38988L16.1025 4.07571C16.8885 4.84911 17.5126 5.77125 17.9385 6.78835C18.3645 7.80546 18.5837 8.89719 18.5833 9.99988ZM1.95747 10.8024L4.58914 13.434C4.82073 13.6671 5.09629 13.8519 5.39985 13.9776C5.7034 14.1034 6.02891 14.1676 6.35747 14.1665H8.58331C8.80432 14.1665 9.01628 14.2543 9.17256 14.4106C9.32884 14.5669 9.41664 14.7789 9.41664 14.9999V18.2907C7.50013 18.0951 5.7103 17.2425 4.35075 15.8777C2.99119 14.5128 2.14562 12.7196 1.95747 10.8024V10.8024ZM11.0833 18.2907V14.9999C11.0833 14.3368 10.8199 13.701 10.3511 13.2321C9.88223 12.7633 9.24635 12.4999 8.58331 12.4999H6.35747C6.24791 12.5 6.1394 12.4784 6.03816 12.4365C5.93692 12.3946 5.84494 12.3332 5.76747 12.2557L2.05247 8.54071C2.29095 7.18505 2.86226 5.90979 3.71512 4.82936C4.56798 3.74893 5.67573 2.89713 6.93897 2.35039C8.20221 1.80364 9.58142 1.57906 10.9529 1.69678C12.3243 1.8145 13.6451 2.27085 14.7966 3.02488L14.61 3.21154C14.5315 3.2889 14.426 3.33256 14.3158 3.33321H13.1666C12.6141 3.33321 12.0842 3.5527 11.6935 3.94341C11.3028 4.33411 11.0833 4.86401 11.0833 5.41654V6.24988C11.0833 6.36039 11.0394 6.46637 10.9613 6.54451C10.8831 6.62265 10.7771 6.66654 10.6666 6.66654C10.1141 6.66654 9.5842 6.88604 9.1935 7.27674C8.8028 7.66744 8.58331 8.19734 8.58331 8.74988V9.16655C8.58331 9.82959 8.8467 10.4655 9.31554 10.9343C9.78438 11.4032 10.4203 11.6665 11.0833 11.6665H13.5833C13.8043 11.6665 14.0163 11.7543 14.1726 11.9106C14.3288 12.0669 14.4166 12.2789 14.4166 12.4999V13.3015C14.4182 13.8535 14.6374 14.3826 15.0266 14.774L16.1408 15.8882C14.7837 17.25 12.9963 18.0991 11.0833 18.2907V18.2907Z" fill="#6418C3"/>
</svg>
