<svg width="73" height="68" viewBox="0 0 73 68" fill="none" xmlns="http://www.w3.org/2000/svg">
<g clip-path="url(#clip0_277_5887)" filter="url(#filter0_d_277_5887)">
<path d="M60.3279 16.8823C60.3264 14.2728 59.2964 11.7701 57.4633 9.92141C55.6301 8.07273 53.1429 7.02853 50.5456 7.01715C45.9097 7.01715 41.2719 7.01715 36.6321 7.01715C32.001 7.01715 27.3641 6.97122 22.7273 7.02863C18.6161 7.08029 15.6391 9.03782 13.7906 12.7175C13.1488 14.0293 12.8257 15.4753 12.8478 16.9368C12.8336 22.2124 12.8164 27.4909 12.8507 32.7664C12.8878 38.4065 17.2047 42.7062 22.833 42.7406C26.5413 42.7636 30.2506 42.7636 33.9609 42.7406C34.5323 42.7406 34.718 42.9014 34.6865 43.4697C34.6465 44.2533 34.6865 45.0426 34.6865 45.8319C34.6865 46.8222 34.6865 46.8251 33.7266 46.8251C31.441 46.8251 29.1554 46.8251 26.8699 46.8251C26.0385 46.8251 25.3728 47.0834 24.97 47.8383C24.8094 48.1337 24.7288 48.4663 24.7363 48.8028C24.7438 49.1393 24.839 49.468 25.0125 49.7559C25.1861 50.0439 25.4318 50.281 25.7251 50.4436C26.0185 50.6063 26.3492 50.6887 26.6842 50.6827C29.444 50.7172 32.201 50.6999 34.9694 50.7028H46.1687C46.6935 50.749 47.2187 50.6199 47.6629 50.3354C47.9838 50.1055 48.2263 49.7818 48.3572 49.4083C48.4881 49.0348 48.501 48.6299 48.3943 48.2487C48.3044 47.8352 48.0718 47.4669 47.7377 47.209C47.4037 46.9511 46.9896 46.8202 46.5687 46.8394C44.166 46.8193 41.7633 46.8107 39.3634 46.8394C38.7006 46.8394 38.4863 46.6299 38.5234 45.9783C38.572 45.1 38.552 44.2131 38.5234 43.3291C38.5234 42.9043 38.6406 42.7263 39.0948 42.755C39.6862 42.7866 40.2833 42.755 40.8776 42.755C44.4659 42.7005 48.06 42.9243 51.6427 42.6517C56.3624 42.29 60.3536 37.8468 60.3507 33.0764C60.3336 27.6765 60.3259 22.2784 60.3279 16.8823ZM56.8995 32.0173C56.8995 33.8976 56.156 35.7008 54.8326 37.0304C53.5092 38.3599 51.7143 39.1069 49.8428 39.1069H23.3215C22.3946 39.1072 21.4766 38.9241 20.6201 38.568C19.7636 38.2119 18.9854 37.6898 18.3298 37.0314C17.6742 36.373 17.1542 35.5913 16.7994 34.731C16.4446 33.8707 16.2619 32.9485 16.2619 32.0173V17.465C16.2619 15.5839 17.0057 13.7799 18.3296 12.4498C19.6536 11.1197 21.4492 10.3725 23.3215 10.3725H49.8456C50.7726 10.3725 51.6904 10.556 52.5468 10.9124C53.4031 11.2689 54.1812 11.7914 54.8365 12.45C55.4918 13.1086 56.0115 13.8905 56.366 14.751C56.7205 15.6115 56.9027 16.5337 56.9023 17.465L56.8995 32.0173Z" fill="#FF0000"/>
<path d="M36.4919 34.526C33.9176 34.5116 31.4543 33.4712 29.6432 31.6333C27.832 29.7953 26.8211 27.3103 26.8325 24.724C26.8325 19.2475 31.1636 14.9651 36.6662 14.9651C39.1992 15.0575 41.5966 16.1384 43.3491 17.9782C45.1016 19.8179 46.0712 22.2716 46.0518 24.8181C46.0325 27.3645 45.0258 29.8031 43.2455 31.6158C41.4653 33.4285 39.0517 34.4725 36.5176 34.526H36.4919ZM33.5778 30.2206C34.4667 30.7327 35.4729 31.0037 36.4976 31.0071C36.8973 31.0093 37.2963 30.9728 37.689 30.898C40.6573 30.324 42.6258 28.0019 42.8315 24.8475C42.8529 23.7569 42.5857 22.6803 42.0573 21.7275C39.0603 24.7384 36.2776 27.5312 33.5778 30.2292V30.2206ZM36.3662 18.4525C36.209 18.4525 36.0033 18.4869 35.7948 18.5128C34.7845 18.639 33.8203 19.0119 32.9865 19.5987C32.1526 20.1855 31.4744 20.9685 31.0112 21.8793C30.5479 22.7901 30.3136 23.801 30.3287 24.8237C30.3438 25.8464 30.6079 26.8499 31.0979 27.7464C33.9549 24.8561 36.8119 22.0059 39.566 19.2418C38.6112 18.7317 37.5475 18.4619 36.4662 18.4553L36.3662 18.4525Z" fill="#FF0000"/>
</g>
<defs>
<filter id="filter0_d_277_5887" x="0.833313" y="0.25" width="71.5" height="67.7" filterUnits="userSpaceOnUse" color-interpolation-filters="sRGB">
<feFlood flood-opacity="0" result="BackgroundImageFix"/>
<feColorMatrix in="SourceAlpha" type="matrix" values="0 0 0 0 0 0 0 0 0 0 0 0 0 0 0 0 0 0 127 0" result="hardAlpha"/>
<feOffset dy="5.25"/>
<feGaussianBlur stdDeviation="6"/>
<feColorMatrix type="matrix" values="0 0 0 0 0 0 0 0 0 0 0 0 0 0 0 0 0 0 0.141 0"/>
<feBlend mode="normal" in2="BackgroundImageFix" result="effect1_dropShadow_277_5887"/>
<feBlend mode="normal" in="SourceGraphic" in2="effect1_dropShadow_277_5887" result="shape"/>
</filter>
<clipPath id="clip0_277_5887">
<rect width="47.5" height="43.7" fill="white" transform="translate(12.8333 7)"/>
</clipPath>
</defs>
</svg>
