<svg width="21" height="19" viewBox="0 0 21 19" fill="none" xmlns="http://www.w3.org/2000/svg">
<path d="M4.75333 0.800049H19.75C19.9887 0.800049 20.2176 0.894869 20.3864 1.06365C20.5552 1.23244 20.65 1.46136 20.65 1.70005V10.7C20.65 10.9387 20.5552 11.1677 20.3864 11.3364C20.2176 11.5052 19.9887 11.6 19.75 11.6H15.6163L13.1098 14.0444C12.7624 14.3819 12.46 16.1837 12.46 17.9C12.4595 18.0187 12.4353 18.1361 12.389 18.2453C12.3426 18.3546 12.275 18.4535 12.19 18.5363C12.0225 18.7031 11.7964 18.7978 11.56 18.8C9.79333 18.8 7.89163 17.9549 7.89163 16.1V12.5H3.59323C3.18938 12.5004 2.7904 12.4119 2.42458 12.2408C2.05876 12.0697 1.73506 11.8202 1.47643 11.51C1.22389 11.2082 1.04077 10.8546 0.940029 10.4741C0.840288 10.0947 0.826147 9.69783 0.89863 9.31225L2.06863 3.01225C2.18964 2.38914 2.52375 1.82758 3.01362 1.42392C3.50349 1.02027 4.11858 0.799694 4.75333 0.800049ZM10.6834 16.8767C10.7734 15.4313 11.0434 13.5467 11.8534 12.7502L14.35 10.3211V2.60005H4.74343C4.5342 2.6003 4.33109 2.67064 4.16653 2.79985C3.99441 2.93459 3.87549 3.12587 3.83083 3.33985L2.66083 9.63985C2.63719 9.76552 2.64189 9.89488 2.67459 10.0185C2.70728 10.1421 2.76715 10.2569 2.84983 10.3544C2.93956 10.4613 3.05152 10.5472 3.1779 10.6063C3.30428 10.6654 3.44203 10.6961 3.58153 10.6964H8.78533C9.02402 10.6964 9.25294 10.7913 9.42173 10.9601C9.59051 11.1288 9.68533 11.3578 9.68533 11.5964V16.0964C9.68533 16.343 9.85813 16.6796 10.6834 16.8767ZM18.85 9.80005V2.60005H16.15V9.80005H18.85Z" fill="#6418C3"/>
</svg>
