<svg width="24" height="24" viewBox="0 0 24 24" fill="none" xmlns="http://www.w3.org/2000/svg">
<path d="M19.6116 13.8166V10.2216C19.6116 8.15881 18.7922 6.18047 17.3335 4.72182C15.8749 3.26318 13.8966 2.44373 11.8337 2.44373C9.7709 2.44373 7.79256 3.26318 6.33391 4.72182C4.87527 6.18047 4.05582 8.15881 4.05582 10.2216V13.8166L2.27832 16.4883C2.18105 16.6348 2.12529 16.805 2.11698 16.9806C2.10866 17.1563 2.1481 17.3309 2.2311 17.486C2.31409 17.641 2.43754 17.7707 2.58833 17.8612C2.73912 17.9517 2.91162 17.9997 3.08748 18H20.5875C20.7633 17.9997 20.9358 17.9517 21.0866 17.8612C21.2374 17.7707 21.3609 17.641 21.4439 17.486C21.5269 17.3309 21.5663 17.1563 21.558 16.9806C21.5497 16.805 21.4939 16.6348 21.3966 16.4883L19.6116 13.8166Z" fill="#A5A5A5"/>
<path d="M14.2141 21.0759C14.8955 20.5477 15.3816 19.8077 15.5958 18.9725H8.07079C8.28493 19.8077 8.77105 20.5477 9.45245 21.0759C10.1337 21.6038 10.9714 21.89 11.8333 21.8892C12.6952 21.89 13.5328 21.6038 14.2141 21.0759Z" fill="#A5A5A5"/>
</svg>
