<svg width="35" height="43" viewBox="0 0 35 43" fill="none" xmlns="http://www.w3.org/2000/svg">
<g clip-path="url(#clip0_277_5919)">
<path d="M17.9134 42.6503H17.5738C17.4796 42.5302 17.3302 42.5226 17.2037 42.4744C14.5151 41.4543 11.8952 40.2912 9.44683 38.7721C7.3618 37.4787 5.45676 35.9723 3.88789 34.0741C1.60506 31.3183 0.649994 28.1184 0.655937 24.5869C0.662728 18.495 0.660747 12.4031 0.649994 6.31123C0.649994 5.97881 0.757811 5.92552 1.06174 5.92552C2.01935 5.93059 2.97527 5.98557 3.93544 5.95935C5.84303 5.90522 7.73364 5.7132 9.58266 5.24629C12.5956 4.48501 15.4345 3.37609 17.5628 0.97299C17.7564 0.754758 17.8523 0.865566 17.9813 1.01698C18.614 1.756 19.3587 2.39188 20.1886 2.90156C23.474 4.93163 27.1084 5.73773 30.9143 5.93313C32.2242 6.0008 33.535 5.94497 34.8449 5.93313V25.5986C34.7371 25.7627 34.7702 25.9505 34.76 26.1289C34.7006 27.1088 34.5358 28.0795 34.2685 29.0243C33.4543 31.9544 31.7301 34.2856 29.4736 36.2632C27.1262 38.3221 24.4385 39.8446 21.5987 41.1134C20.3839 41.6539 19.1427 42.1394 17.9134 42.6503ZM16.2843 29.6782C16.4592 29.3229 16.6162 28.9956 16.7809 28.6716C19.3575 23.604 22.9129 19.2901 27.032 15.4153C27.7876 14.7022 27.7961 14.7225 27.1008 13.9587C26.9607 13.8047 26.858 13.7768 26.6763 13.8851C25.953 14.3199 25.2042 14.7157 24.497 15.1742C20.9552 17.469 17.8039 20.2333 14.8428 23.2209C14.5949 23.4704 14.4616 23.4577 14.2001 23.2564C12.9063 22.26 11.587 21.2948 10.2949 20.2959C10.047 20.1047 9.90781 20.1343 9.69387 20.3204C9.16243 20.7822 8.62419 21.2382 8.06304 21.6628C7.78288 21.8751 7.74892 21.9834 8.03417 22.2354C9.36363 23.4112 10.671 24.6123 11.9877 25.8033C13.4089 27.0865 14.8317 28.3679 16.2843 29.6782Z" fill="url(#paint0_linear_277_5919)"/>
</g>
<defs>
<linearGradient id="paint0_linear_277_5919" x1="34.6739" y1="10.2555" x2="3.50425" y2="42.059" gradientUnits="userSpaceOnUse">
<stop stop-color="#6418C3"/>
<stop offset="1" stop-color="#B74BDD"/>
</linearGradient>
<clipPath id="clip0_277_5919">
<rect width="34.2" height="41.8" fill="white" transform="translate(0.649994 0.850098)"/>
</clipPath>
</defs>
</svg>
