<svg width="38" height="38" viewBox="0 0 38 38" fill="none" xmlns="http://www.w3.org/2000/svg">
<g clip-path="url(#clip0_1296_84508)">
<g clip-path="url(#clip1_1296_84508)">
<path d="M25.1884 28.0737C23.6138 28.1171 22.2937 27.5522 21.1613 26.5276C20.7666 26.1708 20.3895 25.7956 19.9589 25.4774C19.182 24.902 18.4151 24.8915 17.6224 25.4508C17.1343 25.7964 16.7195 26.2231 16.2773 26.6176C14.8771 27.8672 13.2207 28.2569 11.3632 28.0119C10.5405 27.9034 9.78778 27.6438 9.1536 27.1126C8.42345 26.4979 8.04211 25.6943 7.8335 24.8015C7.615 23.8676 7.54077 22.9077 7.6132 21.9528C7.64575 21.5077 7.65826 21.0617 7.66494 20.6181C7.66995 20.2276 7.48887 19.8659 7.32615 19.5116C6.78877 18.3432 6.12121 17.2382 5.53876 16.0923C4.75605 14.5519 4.09266 12.9696 3.66209 11.3014C3.60701 11.0876 3.56362 10.8707 3.51522 10.6553C3.46182 10.4215 3.55194 10.2993 3.80728 10.2792C4.43813 10.2294 5.05896 10.3218 5.66226 10.4705C7.43797 10.9044 9.07516 11.6614 10.6848 12.4794C11.3348 12.8121 11.9774 13.1585 12.5957 13.5361C12.7289 13.6224 12.8806 13.6787 13.0395 13.7009C13.1983 13.7232 13.3604 13.7108 13.5136 13.6647C14.739 13.3467 15.9824 13.0972 17.2377 12.9174C18.4736 12.7406 19.701 12.8057 20.9277 13.0098C22.0225 13.1925 23.1073 13.421 24.182 13.6952C24.4465 13.7627 24.6827 13.688 24.9147 13.5522C26.0313 12.892 27.1836 12.2895 28.3668 11.7474C29.5091 11.2242 30.6732 10.7557 31.9057 10.4616C32.49 10.3116 33.0948 10.2485 33.6989 10.2744C33.9985 10.2929 34.0828 10.4094 34.0218 10.6963C33.5404 12.9568 32.5858 15.0428 31.4901 17.0775C31.0462 17.902 30.5839 18.7184 30.1867 19.563C29.903 20.1657 29.8529 20.8182 29.9114 21.4916C30.0308 22.6979 29.9385 23.9149 29.6385 25.0916C29.2171 26.7028 28.0121 27.7571 26.3074 27.999C25.9367 28.0499 25.5628 28.0749 25.1884 28.0737ZM23.7331 24.1161C23.8374 24.1113 23.9417 24.1081 24.0452 24.1C24.1014 24.0946 24.1572 24.0855 24.2121 24.0727C25.0215 23.9072 25.6991 23.5311 26.2064 22.8955C26.5477 22.4671 26.9015 22.0437 27.0642 21.5117C27.0968 21.4064 27.1251 21.2979 27.0183 21.216C26.4818 20.7997 25.8977 20.4831 25.2076 20.3642C24.2521 20.2035 23.4135 20.5249 22.6091 20.9484C21.9858 21.2786 21.5802 21.8251 21.1997 22.3868C21.1221 22.5017 21.1163 22.5957 21.2339 22.701C21.3505 22.8154 21.4592 22.937 21.5593 23.065C22.1226 23.7215 22.8394 24.0872 23.7331 24.1161ZM13.5803 24.1105C14.3939 24.1225 14.9021 23.9176 15.3836 23.6139C15.7316 23.3937 15.9727 23.0738 16.2623 22.799C16.4166 22.6528 16.4292 22.4912 16.3023 22.2992C16.0475 21.91 15.73 21.5623 15.3619 21.269C14.777 20.8052 14.0782 20.4939 13.3325 20.365C12.2611 20.1769 11.3716 20.6012 10.5471 21.2063C10.4144 21.3036 10.4144 21.3944 10.4754 21.5278C10.7261 22.0865 11.0697 22.6022 11.4926 23.0546C12.1084 23.7304 12.8886 24.0623 13.5803 24.1105Z" fill="#FF0000"/>
</g>
</g>
<defs>
<clipPath id="clip0_1296_84508">
<rect width="30.54" height="30.5407" fill="white" transform="translate(3.5 3.26367)"/>
</clipPath>
<clipPath id="clip1_1296_84508">
<rect width="30.54" height="17.8154" fill="white" transform="translate(3.5 10.2598)"/>
</clipPath>
</defs>
</svg>
