<svg width="18" height="14" viewBox="0 0 18 14" fill="none" xmlns="http://www.w3.org/2000/svg">
<path d="M0 6.20998C0.110351 6.00689 0.28794 5.89088 0.514179 5.8098C5.76698 3.90474 11.019 1.99581 16.2702 0.0829917C16.9655 -0.170782 17.5418 0.191484 17.6644 0.708417C17.723 0.955058 17.6399 1.19081 17.5853 1.42694C16.6701 5.37395 15.7539 9.32096 14.8368 13.268C14.7162 13.789 14.4389 14.0259 13.9639 13.9978C13.7844 13.9869 13.6432 13.9002 13.5055 13.8014C12.2169 12.8754 10.9288 11.9485 9.64126 11.0208C9.50797 10.9239 9.43954 10.9296 9.32168 11.0418C8.65285 11.6778 7.97334 12.3032 7.29897 12.9342C7.17518 13.0506 7.04742 13.1441 6.8639 13.0555C6.68038 12.9669 6.68235 12.822 6.6958 12.6546C6.77135 11.7033 6.83819 10.752 6.90859 9.80148C6.92125 9.62767 6.93984 9.45348 6.94617 9.27929C6.94973 9.18206 7.0229 9.13889 7.08421 9.08558C8.37466 7.95661 9.66591 6.82827 10.958 5.70055L14.1079 2.95071C14.1273 2.93382 14.1474 2.91768 14.1652 2.89928C14.2357 2.8242 14.3769 2.76263 14.2724 2.64175C14.1807 2.53551 14.081 2.63049 13.9956 2.67929C12.9762 3.27068 11.957 3.8617 10.9382 4.45233C8.83241 5.6744 6.72705 6.89697 4.62208 8.12004C4.57156 8.15259 4.51335 8.17278 4.45262 8.17881C4.39189 8.18484 4.33053 8.17651 4.27402 8.15458C2.99674 7.73913 1.71789 7.32719 0.437448 6.91874C0.230985 6.85267 0.101649 6.71978 0 6.54709V6.20998Z" fill="white"/>
</svg>
