<svg width="16" height="18" viewBox="0 0 16 18" fill="none" xmlns="http://www.w3.org/2000/svg">
<path d="M11.2818 5.92078C11.2342 5.98101 11.2553 6.03954 11.2556 6.09296C11.2581 8.18544 11.2612 10.2777 11.2648 12.3697C11.2672 15.1409 9.33373 17.4399 6.603 17.9135C5.17189 18.1686 3.69759 17.8595 2.48952 17.0509C1.28145 16.2424 0.433556 14.9973 0.123782 13.577C-0.525808 10.6132 1.45086 7.58337 4.42285 6.98653C5.01759 6.86322 5.62746 6.82984 6.2321 6.88751C6.48016 6.91201 6.4805 6.90962 6.4805 7.15088C6.4805 8.0128 6.47812 8.87473 6.48255 9.73699C6.48255 9.86323 6.46655 9.90339 6.32466 9.86664C4.84751 9.48382 3.39011 10.3689 3.04574 11.8511C2.71125 13.2915 3.66199 14.7401 5.13879 15.0392C6.77042 15.3696 8.30337 14.0946 8.30337 12.4048C8.30541 8.33845 8.30519 4.27247 8.30269 0.206838C8.30269 0.0448661 8.33672 -5.05601e-05 8.50447 -5.05601e-05C9.34927 0.00947721 10.1942 0.00947721 11.0392 -5.05601e-05C11.2155 -0.0024325 11.2485 0.0543939 11.2604 0.215005C11.3873 1.92218 12.2132 3.18325 13.7124 4.00059C14.2983 4.31763 14.9519 4.48886 15.618 4.49978C15.7517 4.50318 15.8021 4.527 15.8007 4.67536C15.7932 5.54262 15.7932 6.4101 15.8007 7.27781C15.8007 7.41392 15.7578 7.43603 15.6367 7.43331C14.1024 7.39588 12.712 6.92936 11.4598 6.04464C11.4009 6.00347 11.3417 5.96297 11.2818 5.92078Z" fill="white"/>
</svg>
