<svg width="35" height="34" viewBox="0 0 35 34" fill="none" xmlns="http://www.w3.org/2000/svg">
<path d="M17.5977 33.5635C15.1148 33.5665 12.6628 33.0116 10.4214 31.9396C8.18004 30.8675 6.2062 29.3055 4.64469 27.368C3.08318 25.4306 1.9736 23.1668 1.39734 20.7429C0.821075 18.319 0.79275 15.7964 1.31444 13.36C1.97013 10.2715 3.48386 7.43248 5.68042 5.17155C7.87698 2.91063 10.6666 1.32024 13.7263 0.584461C16.7861 -0.151317 19.9909 -0.00240187 22.9698 1.01397C25.9487 2.03034 28.5799 3.87262 30.559 6.32757C32.538 8.78251 33.7839 11.7498 34.1525 14.8859C34.521 18.022 33.9972 21.1987 32.6416 24.0485C31.2859 26.8982 29.154 29.3043 26.4924 30.9884C23.8309 32.6725 20.7485 33.5657 17.6022 33.5647L17.5977 33.5635ZM16.172 12.9379V23.8246C16.1823 24.1937 16.3357 24.5443 16.5996 24.8018C16.8634 25.0593 17.2169 25.2033 17.5849 25.2033C17.9529 25.2033 18.3064 25.0593 18.5702 24.8018C18.8341 24.5443 18.9875 24.1937 18.9978 23.8246V12.9916L21.3316 15.334C21.4407 15.4504 21.5719 15.5437 21.7176 15.6084C21.8632 15.673 22.0203 15.7076 22.1795 15.7102C22.4453 15.6991 22.7024 15.6116 22.9199 15.4579C23.1375 15.3042 23.3065 15.091 23.4066 14.8436C23.5011 14.6225 23.525 14.3774 23.4748 14.1422C23.4246 13.9069 23.303 13.6931 23.1266 13.5302L18.4846 8.86674C18.2483 8.62974 17.9285 8.49569 17.5944 8.4936C17.2604 8.4915 16.9389 8.62153 16.6997 8.85554L12.051 13.4082C11.8721 13.5696 11.7477 13.7828 11.6952 14.0184C11.6426 14.254 11.6644 14.5001 11.7576 14.7227C11.8562 14.9718 12.0245 15.1869 12.2423 15.3421C12.46 15.4972 12.7179 15.5858 12.9847 15.5971C13.1416 15.5947 13.2965 15.5613 13.4405 15.4986C13.5844 15.436 13.7147 15.3454 13.8236 15.2321L16.1664 12.9368L16.172 12.9379Z" fill="#38E25D"/>
</svg>
