<svg width="18" height="18" viewBox="0 0 18 18" fill="none" xmlns="http://www.w3.org/2000/svg">
<path d="M0 18C0.193849 17.2899 0.375583 16.617 0.560345 15.9451C0.776406 15.1587 0.989438 14.3713 1.21459 13.5879C1.2357 13.5213 1.24222 13.451 1.23368 13.3817C1.22515 13.3124 1.20176 13.2457 1.16511 13.1862C-1.53262 8.17747 0.98237 2.08209 6.44043 0.391767C11.4341 -1.15392 16.8235 2.03488 17.824 7.13094C18.7519 11.8584 15.931 16.3579 11.2432 17.5762C9.07355 18.1376 6.9715 17.8775 4.96637 16.8731C4.89825 16.8359 4.82338 16.8124 4.74608 16.8041C4.66879 16.7959 4.59061 16.8029 4.51608 16.8249C3.02889 17.2146 1.53969 17.5993 0 18ZM11.4704 13.1872C11.5712 13.1948 11.6725 13.1948 11.7733 13.1872C12.6961 13.0435 13.6088 12.455 13.5906 11.2789C13.5906 11.1463 13.5735 11.0238 13.4432 10.9575C12.8173 10.6391 12.1903 10.3197 11.5411 10.0536C11.3462 9.97325 11.1958 10.0335 11.0656 10.2113C10.8576 10.4935 10.6254 10.7576 10.4022 11.0298C10.3544 11.0991 10.2827 11.1487 10.2008 11.1692C10.1188 11.1897 10.0321 11.1798 9.95698 11.1413C8.66431 10.6353 7.58159 9.70934 6.88467 8.51393C6.82556 8.43811 6.7986 8.3423 6.80954 8.24697C6.82048 8.15164 6.86846 8.06434 6.94323 8.00372C7.16926 7.79093 7.35706 7.54127 7.49853 7.26553C7.52702 7.21482 7.54412 7.15858 7.54866 7.10067C7.55319 7.04275 7.54504 6.98455 7.52478 6.93007C7.27439 6.32746 7.02097 5.7282 6.76452 5.13229C6.71101 5.00775 6.63226 4.87116 6.49495 4.85308C6.08605 4.79684 5.65393 4.71046 5.31066 5.04491C4.59685 5.73289 4.34141 6.5655 4.55747 7.53268C4.71497 8.24778 5.11176 8.84537 5.5247 9.44094C6.73626 11.1835 8.282 12.4761 10.3851 13.0214C10.7415 13.1088 11.0958 13.2163 11.4704 13.1872Z" fill="white"/>
</svg>
