<svg width="38" height="38" viewBox="0 0 38 38" fill="none" xmlns="http://www.w3.org/2000/svg">
<g clip-path="url(#clip0_1296_84484)">
<path d="M14.1015 32.4942C11.4536 32.4942 8.80707 32.4805 6.16056 32.5052C5.65005 32.5052 5.49858 32.3954 5.49998 31.8736C5.49998 29.255 6.02031 28.7305 8.70329 28.7305C12.4433 28.7305 16.1833 28.7305 19.9233 28.7305C22.0425 28.7305 23.1771 30.1997 22.6596 32.2402C22.56 32.6357 22.2612 32.4846 22.0467 32.4846C19.3959 32.5011 16.748 32.4942 14.1015 32.4942Z" fill="#FF0000"/>
<path d="M31.7476 26.4191C31.7154 27.3157 31.0997 27.7922 30.369 28.1327C29.6383 28.4733 29.0156 28.2206 28.4756 27.6906L23.3971 22.7185C21.9343 21.2863 20.4827 19.8445 19.0017 18.4302C18.6469 18.0924 18.5585 17.8809 18.9751 17.5239C19.6342 16.9513 20.2373 16.321 20.8544 15.6962C21.0928 15.4518 21.2443 15.4134 21.515 15.6811C24.7417 18.8595 27.9763 22.0319 31.2189 25.1983C31.5611 25.5334 31.7771 25.922 31.7476 26.4191Z" fill="#FF0000"/>
<path d="M16.1492 18.8466C16.023 18.7312 15.9192 18.642 15.8224 18.5472C14.671 17.4212 13.5265 16.2911 12.3723 15.1734C12.1226 14.9331 12.0918 14.7876 12.3597 14.528C14.1465 12.8025 15.923 11.0632 17.6892 9.31012C17.936 9.0657 18.0833 9.04785 18.3385 9.30326C19.4928 10.4581 20.6667 11.5936 21.835 12.7361C22.0004 12.8981 22.1687 13.0107 21.9037 13.2661C20.0692 15.043 18.2572 16.8363 16.4339 18.6214C16.3431 18.7013 16.2481 18.7764 16.1492 18.8466Z" fill="#FF0000"/>
<path d="M13.9501 27.5562C12.1871 27.5562 10.4242 27.5397 8.66123 27.5658C8.17036 27.5727 7.98523 27.4285 8.03852 26.9479C8.07218 26.6568 8.03011 26.3561 8.06377 26.0636C8.20402 24.7715 8.73136 24.3184 10.0539 24.3184C12.5363 24.3184 15.0188 24.3184 17.5012 24.3184C19.2669 24.3184 20.2879 25.5267 20.006 27.228C19.9331 27.6716 19.626 27.5494 19.3791 27.5507C17.5699 27.5603 15.7607 27.5562 13.9501 27.5562Z" fill="#FF0000"/>
<path d="M19.8223 6.26755C20.3412 6.24009 20.7353 6.45704 21.0775 6.79071C22.1995 7.88922 23.3285 8.96302 24.4239 10.0753C25.4645 11.1312 24.811 12.2846 23.8362 13.0302C23.6399 13.1799 23.5375 13.011 23.4309 12.9067C21.6708 11.1875 19.9246 9.46421 18.1533 7.74916C17.9443 7.54594 17.9177 7.41 18.1533 7.19991C18.6343 6.75227 19.0621 6.21262 19.8223 6.26755Z" fill="#FF0000"/>
<path d="M9.26277 16.6217C9.20807 15.7828 9.83639 15.364 10.3315 14.8655C10.5138 14.6815 10.612 14.8573 10.7214 14.9589C12.4979 16.6845 14.2744 18.4128 16.0509 20.1438C16.1561 20.2468 16.2921 20.3265 16.1911 20.5407C15.6301 21.6474 14.0874 21.9893 13.1715 21.1407C11.9962 20.0422 10.8672 18.9053 9.727 17.7752C9.56663 17.629 9.4417 17.4496 9.36137 17.25C9.28105 17.0504 9.24736 16.8357 9.26277 16.6217Z" fill="#FF0000"/>
</g>
<defs>
<clipPath id="clip0_1296_84484">
<rect width="30.0004" height="30" fill="white" transform="translate(4.25 4.38867)"/>
</clipPath>
</defs>
</svg>
