<svg width="24" height="24" viewBox="0 0 24 24" fill="none" xmlns="http://www.w3.org/2000/svg">
<g clip-path="url(#clip0_185_4514)">
<path d="M16.2436 13.7013C15.7236 13.7902 15.4267 14.1458 14.8293 14.8569C14.7333 14.9716 14.5022 15.2462 14.3236 15.4418C13.9467 15.3199 13.5789 15.1714 13.2231 14.9973C11.3862 14.1026 9.90242 12.6179 9.00889 10.7804C8.83469 10.4247 8.68616 10.0569 8.56444 9.68C8.76 9.50222 9.03467 9.26933 9.152 9.17067C9.86311 8.57778 10.2142 8.28178 10.3076 7.75822C10.4924 6.67822 7.63289 2.68267 7.6 2.64711C7.47068 2.46217 7.30196 2.30821 7.10599 2.19631C6.91002 2.08441 6.69167 2.01737 6.46667 2C5.30756 2 2 6.29156 2 7.01422C2 7.056 2.06044 11.3253 7.32533 16.6809C12.6756 21.9396 16.944 22 16.9858 22C17.7093 22 22 18.6916 22 17.5333C21.9834 17.3086 21.917 17.0903 21.8057 16.8943C21.6944 16.6983 21.5409 16.5295 21.3564 16.4C21.3022 16.3564 17.3333 13.496 16.2436 13.7013Z" fill="#6418C3"/>
</g>
<defs>
<clipPath id="clip0_185_4514">
<rect width="24" height="24" fill="white"/>
</clipPath>
</defs>
</svg>
