<svg width="18" height="23" viewBox="0 0 18 23" fill="none" xmlns="http://www.w3.org/2000/svg">
<path d="M17.0241 16.6404L10.0652 22.0108C9.73995 22.2636 9.33967 22.4009 8.92763 22.4009C8.5156 22.4009 8.11532 22.2636 7.79002 22.0108L0.820049 16.6404C0.595672 16.4653 0.414111 16.2414 0.28912 15.9857C0.16413 15.73 0.0989873 15.4493 0.0986328 15.1647V2.14926C0.0986241 1.65678 0.293552 1.18432 0.640831 0.835046C0.988111 0.485777 1.45952 0.288088 1.95211 0.285156L15.892 0.285156C16.1369 0.285156 16.3794 0.333373 16.6056 0.427052C16.8318 0.520732 17.0374 0.658041 17.2105 0.831138C17.3836 1.00424 17.521 1.20973 17.6147 1.4359C17.7084 1.66206 17.7566 1.90446 17.7566 2.14926V15.1647C17.7541 15.45 17.6869 15.7311 17.56 15.9867C17.4332 16.2423 17.2499 16.4658 17.0241 16.6404Z" fill="#F4B000"/>
</svg>
