<svg width="24" height="24" viewBox="0 0 24 24" fill="none" xmlns="http://www.w3.org/2000/svg">
<path d="M2 22C2.21539 21.211 2.41731 20.4633 2.62261 19.7168C2.86267 18.843 3.09938 17.9681 3.34954 17.0977C3.373 17.0237 3.38024 16.9455 3.37076 16.8685C3.36127 16.7915 3.33529 16.7175 3.29457 16.6513C0.29709 11.0861 3.09152 4.31343 9.15604 2.4353C14.7045 0.717862 20.6927 4.26098 21.8045 9.92327C22.8354 15.176 19.7011 20.1754 14.4925 21.5291C12.0817 22.1529 9.74611 21.8639 7.51819 20.7479C7.4425 20.7065 7.35931 20.6804 7.27342 20.6713C7.18754 20.6621 7.10068 20.6699 7.01786 20.6943C5.36544 21.1273 3.71076 21.5547 2 22ZM14.7449 16.6524C14.8569 16.6608 14.9694 16.6608 15.0814 16.6524C16.1068 16.4928 17.1209 15.8389 17.1007 14.5321C17.1007 14.3848 17.0816 14.2487 16.9369 14.175C16.2414 13.8213 15.5448 13.4664 14.8234 13.1707C14.6069 13.0814 14.4398 13.1483 14.2951 13.3459C14.064 13.6594 13.8059 13.9529 13.558 14.2554C13.5048 14.3324 13.4252 14.3874 13.3342 14.4102C13.2431 14.433 13.1468 14.422 13.0633 14.3792C11.627 13.817 10.424 12.7882 9.64963 11.4599C9.58396 11.3757 9.554 11.2692 9.56616 11.1633C9.57831 11.0574 9.63162 10.9604 9.7147 10.893C9.96584 10.6566 10.1745 10.3792 10.3317 10.0728C10.3634 10.0165 10.3824 9.95398 10.3874 9.88963C10.3924 9.82528 10.3834 9.76061 10.3609 9.70008C10.0827 9.03052 9.80108 8.36467 9.51614 7.70255C9.45668 7.56417 9.36918 7.4124 9.21662 7.39231C8.76228 7.32982 8.28215 7.23385 7.90073 7.60546C7.10761 8.36988 6.82379 9.29499 7.06386 10.3696C7.23886 11.1642 7.67973 11.8282 8.13855 12.4899C9.48473 14.4261 11.2022 15.8623 13.539 16.4683C13.935 16.5654 14.3287 16.6848 14.7449 16.6524Z" fill="#6418C3"/>
</svg>
