<svg width="24" height="24" viewBox="0 0 24 24" fill="none" xmlns="http://www.w3.org/2000/svg">
<path d="M17.2499 20H7.75007C6.49074 19.9986 5.28341 19.5299 4.39293 18.6967C3.50245 17.8635 3.00151 16.7338 3 15.5555L3 9.05307L12.045 13.6691C12.1845 13.7404 12.341 13.7778 12.5 13.7778C12.659 13.7778 12.8155 13.7404 12.955 13.6691L22 9.05307V15.5555C21.9985 16.7338 21.4976 17.8635 20.6071 18.6967C19.7166 19.5299 18.5093 19.9986 17.2499 20ZM12.4999 11.8763L3.23085 7.14667C3.52547 6.23898 4.12334 5.44358 4.93667 4.87723C5.75 4.31089 6.73595 4.00343 7.74979 4L17.2499 4C18.2638 4.00335 19.2498 4.31077 20.0631 4.87713C20.8765 5.44349 21.4743 6.23893 21.7689 7.14667L12.4999 11.8763Z" fill="#6418C3"/>
</svg>
