<svg width="24" height="24" viewBox="0 0 24 24" fill="none" xmlns="http://www.w3.org/2000/svg">
<g clip-path="url(#clip0_185_4520)">
<path d="M0 10.4278C0.149762 10.1522 0.390776 9.99477 0.697815 9.88472C7.82662 7.29929 14.9544 4.70859 22.081 2.11263C23.0247 1.76822 23.8068 2.25987 23.9732 2.96142C24.0526 3.29615 23.9399 3.6161 23.8658 3.93656C22.6237 9.29322 21.3803 14.6499 20.1357 20.0065C19.972 20.7137 19.5957 21.0352 18.951 20.997C18.7073 20.9822 18.5157 20.8645 18.3289 20.7305C16.5801 19.4738 14.832 18.2159 13.0846 16.9568C12.9037 16.8254 12.8108 16.833 12.6508 16.9853C11.7432 17.8484 10.821 18.6972 9.90575 19.5536C9.73774 19.7115 9.56436 19.8384 9.31529 19.7182C9.06623 19.5979 9.06891 19.4013 9.08716 19.174C9.18968 17.883 9.2804 16.592 9.37595 15.302C9.39313 15.0661 9.41835 14.8297 9.42694 14.5933C9.43177 14.4614 9.53108 14.4028 9.61428 14.3304C11.3656 12.7983 13.118 11.2669 14.8715 9.73647L19.1464 6.00454C19.1727 5.98161 19.2001 5.9597 19.2243 5.93474C19.3198 5.83284 19.5114 5.74929 19.3697 5.58524C19.2452 5.44105 19.1099 5.56995 18.994 5.63618C17.6105 6.43878 16.2274 7.24087 14.8447 8.04245C11.9868 9.70097 9.12957 11.3602 6.27282 13.0201C6.20426 13.0642 6.12526 13.0916 6.04284 13.0998C5.96042 13.108 5.87715 13.0967 5.80045 13.0669C4.06701 12.5031 2.33142 11.944 0.593679 11.3897C0.31348 11.3001 0.137953 11.1197 0 10.8853V10.4278Z" fill="#6418C3"/>
</g>
<defs>
<clipPath id="clip0_185_4520">
<rect width="24" height="24" fill="white"/>
</clipPath>
</defs>
</svg>
