<svg width="61" height="72" viewBox="0 0 61 72" fill="none" xmlns="http://www.w3.org/2000/svg">
<g clip-path="url(#clip0_185_4538)" filter="url(#filter0_d_185_4538)">
<path d="M30.75 30.7498C33.0987 30.7498 35.3946 30.0533 37.3474 28.7485C39.3002 27.4436 40.8223 25.589 41.7211 23.4191C42.6199 21.2493 42.855 18.8616 42.3968 16.5581C41.9386 14.2545 40.8076 12.1386 39.1469 10.4779C37.4861 8.81712 35.3702 7.68614 33.0667 7.22794C30.7632 6.76974 28.3755 7.0049 26.2056 7.90369C24.0358 8.80248 22.1811 10.3245 20.8763 12.2774C19.5715 14.2302 18.875 16.5261 18.875 18.8748C18.8781 22.0232 20.1303 25.0419 22.3566 27.2682C24.5829 29.4945 27.6015 30.7466 30.75 30.7498ZM30.75 10.9581C32.3158 10.9581 33.8464 11.4224 35.1483 12.2923C36.4502 13.1622 37.4649 14.3986 38.064 15.8452C38.6632 17.2918 38.82 18.8835 38.5146 20.4192C38.2091 21.9549 37.4551 23.3655 36.3479 24.4727C35.2408 25.5799 33.8301 26.3338 32.2945 26.6393C30.7588 26.9448 29.167 26.788 27.7204 26.1888C26.2738 25.5896 25.0374 24.5749 24.1675 23.273C23.2976 21.9711 22.8333 20.4405 22.8333 18.8748C22.8333 16.7751 23.6674 14.7615 25.1521 13.2768C26.6367 11.7922 28.6504 10.9581 30.75 10.9581Z" fill="url(#paint0_linear_185_4538)"/>
<path d="M30.75 34.7095C26.0274 34.7147 21.4998 36.5931 18.1604 39.9324C14.8211 43.2718 12.9427 47.7994 12.9375 52.522C12.9375 53.0469 13.146 53.5503 13.5172 53.9215C13.8883 54.2926 14.3917 54.5011 14.9167 54.5011C15.4416 54.5011 16.025 54.4999 16.025 54.4999H16.975C16.975 54.4999 18.1604 54.5011 21.25 54.5011C24.3396 54.5011 27.0756 54.5011 30.75 54.5011C34.4243 54.5011 35.5 54.5011 38.825 54.5011C42.15 54.5011 41.675 54.5011 44.05 54.5011H45.475C46.5833 54.5011 46.0584 54.5011 46.5833 54.5011C47.1082 54.5011 47.6116 54.2926 47.9828 53.9215C48.354 53.5503 48.5625 53.0469 48.5625 52.522C48.5572 47.7994 46.6789 43.2718 43.3395 39.9324C40.0002 36.5931 35.4725 34.7147 30.75 34.7095Z" fill="url(#paint1_linear_185_4538)"/>
</g>
<defs>
<filter id="filter0_d_185_4538" x="-5" y="0.25" width="71.5" height="71.5" filterUnits="userSpaceOnUse" color-interpolation-filters="sRGB">
<feFlood flood-opacity="0" result="BackgroundImageFix"/>
<feColorMatrix in="SourceAlpha" type="matrix" values="0 0 0 0 0 0 0 0 0 0 0 0 0 0 0 0 0 0 127 0" result="hardAlpha"/>
<feOffset dy="5.25"/>
<feGaussianBlur stdDeviation="6"/>
<feColorMatrix type="matrix" values="0 0 0 0 0 0 0 0 0 0 0 0 0 0 0 0 0 0 0.141 0"/>
<feBlend mode="normal" in2="BackgroundImageFix" result="effect1_dropShadow_185_4538"/>
<feBlend mode="normal" in="SourceGraphic" in2="effect1_dropShadow_185_4538" result="shape"/>
</filter>
<linearGradient id="paint0_linear_185_4538" x1="42.5063" y1="12.3435" x2="25.2163" y2="33.9085" gradientUnits="userSpaceOnUse">
<stop stop-color="#34C38F"/>
<stop offset="1" stop-color="#089E68"/>
</linearGradient>
<linearGradient id="paint1_linear_185_4538" x1="48.3844" y1="39.1626" x2="37.4113" y2="63.7978" gradientUnits="userSpaceOnUse">
<stop stop-color="#34C38F"/>
<stop offset="1" stop-color="#089E68"/>
</linearGradient>
<clipPath id="clip0_185_4538">
<rect width="47.5" height="47.5" fill="white" transform="translate(7 7)"/>
</clipPath>
</defs>
</svg>
