<svg width="18" height="10" viewBox="0 0 18 10" fill="none" xmlns="http://www.w3.org/2000/svg">
<path d="M16.9863 0.690292C16.8847 0.588583 16.7469 0.531377 16.6032 0.53125L12.1305 0.53125C11.9867 0.53125 11.8488 0.588373 11.7471 0.690054C11.6454 0.791734 11.5883 0.929642 11.5883 1.07344C11.5883 1.21724 11.6454 1.35514 11.7471 1.45683C11.8488 1.55851 11.9867 1.61563 12.1305 1.61563H15.2838L10.7859 6.06158L6.68113 3.13882C6.57591 3.06385 6.44737 3.02891 6.31867 3.04031C6.18998 3.05171 6.06958 3.10869 5.97918 3.20099L1.03443 8.28456C0.943138 8.38895 0.895321 8.52435 0.900808 8.66292C0.906294 8.80149 0.964667 8.93268 1.06392 9.02953C1.16318 9.12638 1.29577 9.18151 1.43443 9.1836C1.57309 9.18568 1.70727 9.13455 1.80939 9.04073L6.43606 4.29115L10.5299 7.20813C10.6342 7.28238 10.7613 7.31738 10.8888 7.30693C11.0164 7.29647 11.1361 7.24125 11.2268 7.15102L16.0631 2.3718V5.54614C16.0631 5.68994 16.1203 5.82785 16.2219 5.92953C16.3236 6.03121 16.4615 6.08833 16.6053 6.08833C16.7491 6.08833 16.887 6.03121 16.9887 5.92953C17.0904 5.82785 17.1475 5.68994 17.1475 5.54614V1.07344C17.1472 1.00211 17.1328 0.93155 17.1051 0.865803C17.0774 0.800055 17.0371 0.740413 16.9863 0.690292Z" fill="#38E25D"/>
</svg>
