<svg width="24" height="25" viewBox="0 0 24 25" fill="none" xmlns="http://www.w3.org/2000/svg">
<path d="M11.8333 24.1667C9.52585 24.1667 7.27022 23.4825 5.35164 22.2005C3.43307 20.9186 1.93773 19.0965 1.0547 16.9647C0.171681 14.8329 -0.059358 12.4871 0.390803 10.224C0.840964 7.96088 1.95211 5.88208 3.58372 4.25047C5.21533 2.61885 7.29413 1.50771 9.55724 1.05755C11.8204 0.60739 14.1661 0.838429 16.2979 1.72145C18.4297 2.60447 20.2518 4.09982 21.5338 6.01839C22.8157 7.93697 23.5 10.1926 23.5 12.5C23.5 15.5942 22.2708 18.5617 20.0829 20.7496C17.895 22.9375 14.9275 24.1667 11.8333 24.1667Z" fill="#F0F0F0"/>
<path d="M23.5001 12.4993C23.5004 11.4715 23.3651 10.4482 23.0976 9.45593H11.3259V12.4993H23.5001Z" fill="#D80027"/>
<path d="M21.7876 6.4126C21.074 5.24922 20.1628 4.21932 19.0951 3.36926L11.3259 3.36926V6.4126H21.7876Z" fill="#D80027"/>
<path d="M19.0959 21.6301H4.57087C6.63346 23.2757 9.1948 24.17 11.8334 24.166C14.4719 24.17 17.0333 23.2757 19.0959 21.6301Z" fill="#D80027"/>
<path d="M21.7875 18.5868C22.3676 17.6403 22.8087 16.6154 23.0975 15.5435L0.568314 15.5435C0.857335 16.6154 1.29878 17.6403 1.87915 18.5868H21.7875Z" fill="#D80027"/>
<path d="M11.8333 12.5H0.166626C0.16668 12.0137 0.196737 11.5277 0.256626 11.045L0.849126 10.6142L1.83829 11.3325L1.45996 10.1659L2.44829 9.44755H1.22746L0.895793 8.43338C1.00996 8.12672 1.13829 7.82255 1.27746 7.52755L1.83829 7.93588L1.53746 7.01005C1.62746 6.84338 1.72246 6.67672 1.81913 6.51005L2.44829 6.05338H2.10829C2.73634 5.10768 3.49847 4.25825 4.37079 3.53172L4.04496 4.53588L5.03413 3.81755L6.02246 4.53588L5.64579 3.37338L6.63413 2.65505H5.57079C7.44172 1.46273 9.61474 0.830631 11.8333 0.833383V12.5ZM9.21829 10.6142L10.2075 11.3325L9.83329 10.1667L10.8225 9.44838H9.59663L9.21829 8.28588L8.84079 9.44838H7.61829L8.60746 10.1667L8.22913 11.3334L9.21746 10.615L9.21829 10.6142ZM5.03413 10.6142L6.02246 11.3325L5.64496 10.1659L6.63329 9.44755H5.41163L5.03413 8.29005L4.65579 9.45255H3.43329L4.42246 10.1709L4.04413 11.3375L5.03329 10.6192L5.03413 10.6142ZM9.21829 7.21672L10.2075 7.93505L9.83329 6.77255L10.8225 6.05422H9.59663L9.21829 4.89172L8.84079 6.05422H7.61829L8.60746 6.77255L8.22996 7.93505L9.21829 7.21672ZM5.03413 7.21672L6.02246 7.93505L5.64579 6.77255L6.63413 6.05422H5.41163L5.03413 4.89172L4.65579 6.05422H3.43329L4.42246 6.77255L4.04496 7.93505L5.03413 7.21672ZM9.21829 3.81755L10.2075 4.53588L9.83329 3.37338L10.8225 2.65505H9.59663L9.21829 1.49255L8.84079 2.65505H7.61829L8.60746 3.37338L8.22996 4.53588L9.21829 3.81755Z" fill="#0052B4"/>
</svg>
